<svg width="848" height="818" viewBox="0 0 848 818" fill="none" xmlns="http://www.w3.org/2000/svg">
<path d="M621.598 75.0322C690.574 112.963 757.634 153.179 797.87 211.675C837.627 269.714 850.56 345.576 847.207 419.61C843.854 493.644 823.736 565.393 788.29 630.744C752.365 696.095 701.112 755.048 635.489 787.038C570.345 819.028 490.831 824.055 418.981 811.716C347.131 799.834 282.945 770.129 214.448 739.967C145.951 709.805 73.6224 678.729 35.3024 625.717C-3.01764 572.248 -7.32864 496.843 8.95737 430.121C24.7644 363.856 61.1684 305.817 94.6984 245.036C128.707 184.712 160.321 121.189 212.532 74.1182C265.222 27.0472 338.509 -3.57178 410.359 -0.82978C482.209 1.45522 552.622 37.1012 621.598 75.0322Z" fill="#F6F6F9"/>
<path fill-rule="evenodd" clip-rule="evenodd" d="M143.846 20H224.154V90.3905L285.811 54.844L326 124.251L264.343 159.798L326 195.344L285.811 264.751L224.154 229.275V301H143.846V229.275L82.1893 264.751L42 195.344L103.657 159.798L42 124.251L82.1893 54.844L143.846 90.3905V20ZM150.814 27.025V102.473L84.7232 64.398L51.5722 121.722L117.663 159.798L51.5722 197.873L84.7232 255.197L150.814 217.121V294.045H217.186V217.121L283.277 255.197L316.428 197.873L250.337 159.798L316.428 121.722L283.277 64.398L217.186 102.473V27.025H150.814ZM147.365 23.5125V96.432L83.4563 59.621L46.7861 122.986L110.695 159.798L46.7861 196.608L83.4563 259.974L147.365 223.163V297.487H220.635V223.163L284.544 259.974L321.214 196.608L257.305 159.798L321.214 122.986L284.544 59.621L220.635 96.432V23.5125H147.365ZM189.736 259.552C189.244 268.404 178.264 268.685 177.56 259.693L176.997 219.58C177.912 220.002 178.827 220.423 179.812 220.774C182.628 221.828 185.724 223.093 188.329 224.708C188.962 225.06 189.596 225.551 190.229 226.043L189.736 259.552ZM191.144 160.008L190.44 207.567C183.331 204.687 180.516 203.493 176.715 200.472L176.223 166.471L175.8 134.297C177.63 135.21 179.46 136.123 181.29 137.107C184.598 138.793 188.117 140.689 191.074 142.937C191.144 143.008 191.285 143.078 191.355 143.148L191.144 160.008ZM192.059 93.9732L191.637 122.776C191.144 122.495 190.581 122.214 190.018 122.003C188.117 121.09 186.217 120.176 184.317 119.263C182.839 118.49 181.22 117.647 179.883 116.734C178.264 115.68 176.786 114.416 175.519 113.011L175.237 93.8327C178.545 90.9525 183.12 90.3905 187.484 91.5847C189.314 92.0765 190.581 92.9195 192.059 93.9732ZM183.613 41.4262C191.144 41.4262 197.267 46.6247 197.267 53.0175C197.267 56.53 195.437 59.6912 192.552 61.7987L192.341 74.7247C187.836 74.1627 183.191 74.233 178.827 74.795C177.56 75.0057 176.223 75.2867 174.956 75.638L174.744 61.7987C171.859 59.6912 170.029 56.53 170.029 53.0175C170.029 46.6247 176.152 41.4262 183.613 41.4262ZM204.024 83.9977C205.08 84.4895 205.573 85.5433 205.221 86.2458C204.799 87.0185 203.672 87.159 202.687 86.6672C201.702 86.1755 201.139 85.1217 201.561 84.4193C201.913 83.6465 203.039 83.4357 204.024 83.9977ZM200.012 90.4607C200.012 90.4607 203.884 93.8327 208.67 93.622C217.257 93.2005 211.626 82.1712 202.898 78.7992C194.945 75.7082 186.147 75.2165 179.038 76.2C153.84 79.7827 143.987 112.098 170.029 129.379C172.914 131.276 176.715 133.173 180.586 135.14L180.657 135.21H180.727L180.868 135.28L181.009 135.35L181.079 135.421H181.22L181.29 135.491L181.361 135.561H181.431L181.501 135.631H181.642L181.713 135.702L181.783 135.772H181.853L181.994 135.842L182.135 135.912C185.513 137.669 188.892 139.495 191.918 141.743C191.989 141.884 192.129 141.954 192.27 142.024L192.833 142.446V142.516C195.156 144.413 196.775 146.45 197.267 148.768C198.182 152.913 197.056 157.058 192.552 160.711L192.27 177.711C203.813 172.583 212.611 165.909 212.611 150.103C212.611 138.512 202.617 130.573 197.267 127.342C191.918 124.11 183.261 120.738 179.038 117.928C161.864 106.407 171.014 85.6837 187.836 90.25C191.918 91.3037 193.396 93.903 197.267 94.8865C201.139 95.9402 205.15 96.0807 206.347 95.6592C207.473 95.1675 206.91 94.6055 206.065 94.3947C202.476 93.622 200.857 92.6385 199.379 91.093C198.957 90.7417 199.66 90.1095 200.012 90.4607ZM174.885 168.649C171.085 170.335 167.495 172.442 164.75 175.393C157.289 183.331 157.078 197.873 161.512 204.968C165.313 211.15 171.366 215.506 177.56 218.316H177.63L177.912 218.456H177.982V218.526L178.264 218.597H178.334V218.667L178.545 218.737H178.616L178.897 218.878H178.968L179.249 219.018H179.319C179.39 219.088 179.531 219.159 179.601 219.159H179.671L179.953 219.299C180.094 219.369 180.164 219.369 180.305 219.44L180.446 219.51C183.402 220.564 186.428 221.828 189.032 223.514L189.244 223.584C189.947 224.006 190.511 224.498 191.144 224.989L191.637 225.411C192.552 226.254 193.185 227.167 193.607 228.151C195.156 231.593 194.945 236.019 192.974 238.407C192.552 238.969 192.059 239.531 191.426 240.093L191.214 254.705C194.1 253.441 196.986 251.755 199.379 249.507C213.878 236.159 209.514 218.316 191.777 209.675C187.906 207.778 180.657 206.162 175.8 201.596L175.308 201.175V201.104C175.167 200.964 175.026 200.823 174.956 200.683C171.155 196.538 170.31 190.075 175.096 185.579L174.885 168.649ZM175.941 246.837C171.577 248.172 170.099 249.296 170.029 252.106C169.958 255.548 172.985 257.304 176.082 257.726H176.152L175.941 246.837Z" fill="#E8E8ED" fill-opacity="0.4"/>
</svg>
