<svg width="848" height="818" viewBox="0 0 848 818" fill="none" xmlns="http://www.w3.org/2000/svg">
<path d="M621.598 75.0322C690.574 112.963 757.634 153.179 797.87 211.675C837.627 269.714 850.56 345.576 847.207 419.61C843.854 493.644 823.736 565.393 788.29 630.744C752.365 696.095 701.112 755.048 635.489 787.038C570.345 819.028 490.831 824.055 418.981 811.716C347.131 799.834 282.945 770.129 214.448 739.967C145.951 709.805 73.6224 678.729 35.3024 625.717C-3.01763 572.248 -7.32864 496.843 8.95737 430.121C24.7644 363.856 61.1684 305.817 94.6984 245.036C128.707 184.712 160.321 121.189 212.532 74.1182C265.222 27.0472 338.509 -3.57178 410.359 -0.82978C482.209 1.45522 552.622 37.1012 621.598 75.0322Z" fill="#F6F6F9"/>
</svg>
