<svg width="750" height="500" viewBox="0 0 750 500" fill="none" xmlns="http://www.w3.org/2000/svg">
<path d="M410.76 55.55C410.753 55.7015 410.733 55.852 410.7 56C410.65 56.29 410.55 56.72 410.47 57.29C410.198 58.944 410.038 60.6145 409.99 62.29C409.91 64.9465 410.132 67.6034 410.65 70.21C411.352 73.6561 412.609 76.9657 414.37 80.01C416.611 83.6411 419.069 87.1341 421.73 90.47C424.773 94.3564 427.26 98.6476 429.12 103.22C431.129 108.298 432.278 113.675 432.52 119.13C433.031 130.981 428.82 142.551 420.81 151.3C417.143 155.347 412.729 158.647 407.81 161.02C403.14 163.32 398.49 165.02 394.39 167.02C390.532 168.84 387.038 171.347 384.08 174.42C379.824 178.929 376.87 184.506 375.53 190.56C375.26 191.62 375.16 192.56 375.01 193.42C374.86 194.28 374.84 194.97 374.81 195.54C374.78 196.11 374.81 196.54 374.74 196.85C374.751 197 374.751 197.15 374.74 197.3C374.729 197.15 374.729 197 374.74 196.85C374.74 196.53 374.74 196.09 374.74 195.54C374.74 194.99 374.84 194.25 374.9 193.4C374.96 192.55 375.12 191.59 375.37 190.52C375.909 187.897 376.762 185.349 377.91 182.93C379.42 179.718 381.425 176.762 383.85 174.17C386.818 171.044 390.337 168.491 394.23 166.64C398.36 164.54 403.01 162.85 407.64 160.56C412.474 158.219 416.816 154.974 420.43 151C428.341 142.332 432.501 130.885 432 119.16C431.77 113.759 430.644 108.433 428.67 103.4C426.831 98.8662 424.378 94.6064 421.38 90.74C418.723 87.3776 416.272 83.8578 414.04 80.2C412.276 77.1146 411.033 73.7597 410.36 70.27C409.852 67.6356 409.657 64.9502 409.78 62.27C409.846 60.5911 410.04 58.9196 410.36 57.27C410.46 56.7 410.57 56.27 410.64 55.99L410.76 55.55Z" fill="#E0E0E0"/>
<path d="M452.82 62.6C452.268 64.8495 451.58 67.0636 450.76 69.23C449.841 71.7896 448.724 74.2737 447.42 76.66C445.744 79.8701 443.513 82.758 440.83 85.19C440.053 85.8691 439.227 86.4908 438.36 87.05C437.46 87.6 436.52 88.11 435.55 88.61L429.5 91.71C425.32 93.85 420.83 96.09 416.23 98.71C411.44 101.389 407.144 104.869 403.53 109C399.633 113.446 396.707 118.658 394.94 124.3C393.204 129.953 392.78 135.928 393.7 141.77C394.534 147.217 396.648 152.389 399.87 156.86C402.96 161.11 406.6 164.61 409.51 168.32C410.95 170.09 412.219 171.991 413.3 174C414.27 175.866 415.057 177.822 415.65 179.84C416.647 183.319 417.079 186.935 416.93 190.55C416.815 193.266 416.348 195.955 415.54 198.55C415.039 200.196 414.396 201.795 413.62 203.33C413.35 203.83 413.13 204.22 412.98 204.51C412.83 204.8 412.74 204.9 412.74 204.9C412.74 204.9 412.8 204.75 412.93 204.48C413.06 204.21 413.27 203.79 413.53 203.29C414.258 201.742 414.866 200.141 415.35 198.5C416.118 195.899 416.548 193.211 416.63 190.5C416.746 186.952 416.297 183.407 415.3 180C414.702 178.008 413.912 176.079 412.94 174.24C411.865 172.26 410.603 170.388 409.17 168.65C406.27 164.98 402.62 161.5 399.48 157.2C396.203 152.673 394.047 147.433 393.19 141.91C392.258 135.992 392.685 129.939 394.44 124.21C396.233 118.499 399.196 113.223 403.14 108.72C406.792 104.513 411.142 100.968 416 98.24C420.62 95.67 425.12 93.45 429.31 91.33L435.36 88.25C436.36 87.76 437.28 87.25 438.16 86.72C439.012 86.1751 439.824 85.5703 440.59 84.91C443.254 82.5163 445.48 79.6773 447.17 76.52C448.483 74.1537 449.619 71.6936 450.57 69.16C451.37 67.08 451.9 65.43 452.26 64.31C452.43 63.77 452.57 63.31 452.66 63.03C452.75 62.75 452.82 62.6 452.82 62.6Z" fill="#E0E0E0"/>
<path d="M437 87.63C437 87.77 432.14 86.89 426.22 85.63C420.3 84.37 415.52 83.31 415.55 83.17C415.58 83.03 420.4 83.9 426.33 85.17C432.26 86.44 437 87.48 437 87.63Z" fill="#E0E0E0"/>
<path d="M444.33 80.71C444.33 80.85 436.86 78.79 427.73 76.12C418.6 73.45 411.24 71.12 411.28 71.02C411.32 70.92 418.75 72.94 427.88 75.62C437.01 78.3 444.37 80.57 444.33 80.71Z" fill="#E0E0E0"/>
<path d="M449.7 71.64C449.7 71.77 440.75 69.22 429.81 65.93C418.87 62.64 410 59.86 410.06 59.72C410.12 59.58 419 62.14 430 65.43C441 68.72 449.74 71.5 449.7 71.64Z" fill="#E0E0E0"/>
<path d="M415.61 155.79C415.56 155.93 410.78 154.22 404.93 151.97C399.08 149.72 394.39 147.79 394.44 147.66C394.49 147.53 399.27 149.24 405.12 151.48C410.97 153.72 415.66 155.66 415.61 155.79Z" fill="#E0E0E0"/>
<path d="M425 145C424.565 144.937 424.136 144.833 423.72 144.69C422.9 144.47 421.72 144.11 420.28 143.69C417.4 142.78 413.44 141.44 409.11 139.82C404.78 138.2 400.9 136.63 398.11 135.44C396.72 134.84 395.6 134.34 394.83 133.98C394.422 133.813 394.03 133.609 393.66 133.37C394.09 133.468 394.508 133.609 394.91 133.79L398.25 135.09C401.06 136.2 404.95 137.72 409.25 139.34C413.55 140.96 417.51 142.34 420.36 143.34L423.74 144.54C424.174 144.654 424.595 144.808 425 145Z" fill="#E0E0E0"/>
<path d="M430.39 133.37C429.914 133.242 429.452 133.068 429.01 132.85L425.31 131.32C422.19 130.02 417.86 128.26 413.03 126.46C408.2 124.66 403.77 123.16 400.56 122.1L396.75 120.84C396.277 120.708 395.815 120.538 395.37 120.33C395.86 120.388 396.342 120.495 396.81 120.65C397.73 120.89 399.04 121.26 400.67 121.75C403.91 122.75 408.36 124.17 413.21 125.97C418.06 127.77 422.37 129.59 425.46 130.97C427 131.66 428.24 132.24 429.09 132.66C429.545 132.854 429.981 133.092 430.39 133.37Z" fill="#E0E0E0"/>
<path d="M430.46 118.81C430.081 118.755 429.711 118.651 429.36 118.5L426.44 117.5C423.97 116.64 420.57 115.5 416.78 114.23C412.99 112.96 409.55 111.95 407.05 111.23L404.05 110.32C403.68 110.23 403.321 110.099 402.98 109.93C403.36 109.949 403.737 110.017 404.1 110.13C404.82 110.28 405.84 110.54 407.1 110.87C409.63 111.54 413.1 112.53 416.89 113.77C420.68 115.01 424.08 116.24 426.52 117.19C427.73 117.66 428.71 118.06 429.38 118.35C429.757 118.46 430.119 118.615 430.46 118.81Z" fill="#E0E0E0"/>
<path d="M430.6 107.5C427.448 106.7 424.341 105.735 421.29 104.61C418.184 103.645 415.133 102.514 412.15 101.22C415.301 102.023 418.408 102.988 421.46 104.11C424.564 105.079 427.615 106.21 430.6 107.5Z" fill="#E0E0E0"/>
<path d="M415 177.75C414.658 177.698 414.322 177.607 414 177.48L411.36 176.59L402.68 173.59L393.98 170.67L391.34 169.76C391.009 169.669 390.69 169.538 390.39 169.37C390.731 169.39 391.068 169.458 391.39 169.57C392.03 169.73 392.95 169.98 394.08 170.31C396.34 170.97 399.44 171.94 402.84 173.1C406.24 174.26 409.29 175.38 411.48 176.24C412.58 176.67 413.48 177.03 414.06 177.24C414.398 177.36 414.716 177.532 415 177.75Z" fill="#E0E0E0"/>
<path d="M416.81 191C416.76 191.13 408.54 188.47 398.45 185C388.36 181.53 380.21 178.69 380.26 178.55C380.31 178.41 388.52 181.08 398.62 184.55C408.72 188.02 416.85 190.81 416.81 191Z" fill="#E0E0E0"/>
<path d="M416.64 200.77C416.64 200.91 407.42 198.21 396.15 194.77C384.88 191.33 375.76 188.39 375.8 188.25C375.84 188.11 385.02 190.81 396.3 194.25C407.58 197.69 416.69 200.63 416.64 200.77Z" fill="#E0E0E0"/>
<path d="M250.8 117.58C250.8 117.58 250.53 117.58 250.01 117.58L247.71 117.67C245.71 117.73 242.71 117.82 238.87 117.88C236.95 117.88 234.81 117.88 232.47 117.88C231.241 117.896 230.015 117.782 228.81 117.54C227.585 117.047 226.386 116.49 225.22 115.87C223.946 115.308 222.537 115.121 221.16 115.33C220.81 115.38 220.45 115.47 220.1 115.54C219.764 115.649 219.45 115.815 219.17 116.03C218.587 116.497 218.078 117.05 217.66 117.67C215.923 120.421 214.51 123.364 213.45 126.44C212.23 129.65 211.15 133.07 209.86 136.61C209.7 137.05 209.52 137.49 209.33 137.93L209.17 138.26C209.144 138.326 209.107 138.387 209.06 138.44C209.029 138.493 208.986 138.537 208.933 138.569C208.881 138.6 208.821 138.618 208.76 138.62C208.4 138.53 208.45 138.35 208.36 138.24C208.308 138.123 208.264 138.003 208.23 137.88C207.989 136.933 207.812 135.971 207.7 135C207.44 133.07 207.24 131.09 207.05 129.08C206.32 121.08 205.74 112.42 204.96 103.38C204.55 98.86 204.18 94.21 203.39 89.55C203.28 88.97 203.17 88.39 203.01 87.82C202.939 87.5511 202.842 87.2898 202.72 87.04C202.58 86.8 202.46 86.69 202.31 86.76C201.877 87.0815 201.532 87.5083 201.31 88C201.022 88.5193 200.762 89.0534 200.53 89.6C199.57 91.8692 198.726 94.1855 198 96.54C196.53 101.25 195.23 106.1 194 111.04L193.53 112.9C193.399 113.543 193.218 114.175 192.99 114.79C192.707 115.423 192.264 115.972 191.705 116.382C191.145 116.792 190.489 117.05 189.8 117.13C188.46 117.18 187.21 117.25 185.87 117.22C184.543 117.171 183.225 116.977 181.94 116.64C180.312 116.218 178.743 115.593 177.27 114.78C176.595 114.343 175.874 113.981 175.12 113.7C174.785 113.565 174.419 113.528 174.064 113.596C173.709 113.663 173.382 113.831 173.12 114.08C172.646 114.708 172.306 115.426 172.12 116.19C171.87 116.96 171.65 117.74 171.43 118.52C171.01 120.08 170.61 121.65 170.22 123.21C169.42 126.33 168.66 129.41 167.67 132.45C167.631 132.565 167.574 132.673 167.5 132.77C167.439 132.862 167.345 132.927 167.237 132.953C167.13 132.979 167.017 132.964 166.92 132.91C166.722 132.76 166.572 132.555 166.49 132.32C166.332 131.946 166.198 131.562 166.09 131.17C165.88 130.4 165.71 129.64 165.55 128.87C165.23 127.34 164.96 125.81 164.71 124.29C163.71 118.22 162.89 112.29 162.01 106.52C161.57 103.65 161.14 100.81 160.56 98.07C160.432 97.3871 160.242 96.7176 159.99 96.07C159.81 95.51 159.17 96.18 158.79 96.67C158.004 97.7774 157.305 98.9443 156.7 100.16C154.23 104.98 152.23 109.82 150 114.31C149.465 115.438 148.839 116.522 148.13 117.55C147.942 117.851 147.65 118.071 147.31 118.17C146.98 118.236 146.64 118.236 146.31 118.17C145.71 117.958 145.178 117.589 144.77 117.1C144.378 116.691 143.918 116.352 143.41 116.1C142.923 115.848 142.378 115.731 141.83 115.76C140.748 116.015 139.758 116.565 138.97 117.35C138.522 117.738 137.987 118.013 137.41 118.15C137.102 118.203 136.785 118.175 136.49 118.07C136.225 117.947 135.982 117.781 135.77 117.58C135.001 116.806 134.302 115.966 133.68 115.07C133.05 114.21 132.45 113.36 131.82 112.56C131.239 111.775 130.525 111.098 129.71 110.56C128.89 110.02 127.98 110.7 127.25 111.22C126.537 111.796 125.869 112.424 125.25 113.1C124.05 114.369 122.921 115.705 121.87 117.1V117.16H121.8L103.53 117.09H98.7H97.46C97.3202 117.099 97.1799 117.099 97.04 117.09H97.46H98.7H103.53L121.8 117.02L121.69 117.08C122.739 115.661 123.867 114.302 125.07 113.01C125.71 112.315 126.406 111.672 127.15 111.09C127.534 110.778 127.957 110.519 128.41 110.32C128.658 110.22 128.922 110.166 129.19 110.16C129.463 110.175 129.727 110.258 129.96 110.4C130.823 110.965 131.576 111.684 132.18 112.52C132.82 113.33 133.43 114.18 134.06 115.03C134.65 115.907 135.319 116.727 136.06 117.48C136.247 117.654 136.459 117.799 136.69 117.91C136.918 117.988 137.163 118.005 137.4 117.96C137.915 117.831 138.391 117.58 138.79 117.23C139.615 116.403 140.654 115.822 141.79 115.55C142.407 115.541 143.019 115.667 143.582 115.919C144.145 116.171 144.646 116.544 145.05 117.01C145.404 117.461 145.874 117.806 146.41 118.01C146.681 118.065 146.959 118.065 147.23 118.01C147.41 118.01 147.62 117.76 147.79 117.53C148.481 116.524 149.089 115.464 149.61 114.36C151.82 109.89 153.81 105.05 156.29 100.19C156.9 98.9464 157.613 97.7556 158.42 96.63C158.638 96.3283 158.901 96.0619 159.2 95.84C159.289 95.7642 159.393 95.7074 159.504 95.673C159.616 95.6386 159.734 95.6274 159.85 95.64C159.97 95.6676 160.082 95.7225 160.178 95.8006C160.273 95.8786 160.349 95.9777 160.4 96.09C160.658 96.7071 160.859 97.3464 161 98C161.59 100.77 162 103.61 162.47 106.49C163.36 112.24 164.18 118.19 165.19 124.25C165.44 125.77 165.71 127.25 166.03 128.81C166.19 129.57 166.36 130.32 166.56 131.07C166.661 131.437 166.784 131.798 166.93 132.15C166.98 132.283 167.055 132.405 167.15 132.51C167.1 132.51 167.15 132.66 167.15 132.57C167.15 132.57 167.15 132.52 167.15 132.57C167.192 132.513 167.222 132.448 167.24 132.38C168.24 129.38 168.98 126.31 169.77 123.2C170.16 121.64 170.55 120.07 170.98 118.5C171.2 117.72 171.42 116.93 171.68 116.15C171.8 115.76 171.94 115.37 172.08 114.98C172.23 114.562 172.461 114.178 172.76 113.85C173.076 113.501 173.504 113.274 173.97 113.21C174.417 113.143 174.873 113.184 175.3 113.33C176.095 113.612 176.854 113.988 177.56 114.45C178.994 115.242 180.523 115.851 182.11 116.26C183.36 116.58 184.641 116.768 185.93 116.82C187.19 116.82 188.53 116.82 189.78 116.73C190.376 116.662 190.944 116.442 191.431 116.092C191.917 115.742 192.306 115.273 192.56 114.73C192.773 114.143 192.943 113.541 193.07 112.93L193.54 111.07C194.8 106.07 196.11 101.26 197.59 96.54C198.34 94.18 199.1 91.85 200.07 89.6C200.32 89.04 200.58 88.49 200.88 87.95C201.04 87.68 201.2 87.42 201.39 87.16C201.59 86.8749 201.858 86.6445 202.17 86.49C202.278 86.4485 202.395 86.434 202.51 86.448C202.625 86.4619 202.735 86.5038 202.83 86.57C202.982 86.6829 203.106 86.8303 203.19 87C203.335 87.2825 203.446 87.5813 203.52 87.89C203.68 88.48 203.8 89.07 203.91 89.66C204.7 94.37 205.06 99.01 205.47 103.53C206.24 112.59 206.8 121.2 207.47 129.24C207.66 131.24 207.85 133.24 208.1 135.15C208.206 136.097 208.377 137.036 208.61 137.96C208.641 138.065 208.677 138.169 208.72 138.27C208.736 138.312 208.756 138.352 208.78 138.39C208.78 138.39 208.73 138.39 208.78 138.47C208.83 138.55 208.78 138.36 208.73 138.39C208.68 138.42 208.73 138.39 208.73 138.39C208.758 138.349 208.781 138.306 208.8 138.26L208.95 137.95C209.14 137.53 209.31 137.09 209.48 136.65C210.76 133.14 211.86 129.71 213.1 126.5C214.177 123.397 215.614 120.43 217.38 117.66C217.824 117.019 218.36 116.446 218.97 115.96C219.268 115.723 219.607 115.544 219.97 115.43C220.333 115.341 220.7 115.271 221.07 115.22C222.499 115.005 223.96 115.203 225.28 115.79C226.55 116.34 227.64 117.11 228.83 117.48C230.016 117.711 231.222 117.825 232.43 117.82C234.76 117.88 236.9 117.82 238.82 117.82L247.66 117.7H249.96C250.53 117.57 250.8 117.58 250.8 117.58Z" fill="#E0E0E0"/>
<path d="M583.548 205.61L600.204 209.017L578.918 313.082C578.712 314.09 578.113 314.975 577.255 315.542C576.396 316.109 575.347 316.312 574.339 316.106L565.267 314.25C564.259 314.044 563.374 313.446 562.807 312.587C562.239 311.728 562.037 310.679 562.243 309.671L583.529 205.606L583.548 205.61Z" fill="#E0E0E0"/>
<path d="M579.867 223.815L596.522 227.218L581.241 301.993C581.035 303.001 580.437 303.886 579.579 304.453C578.72 305.021 577.671 305.224 576.663 305.017L567.59 303.163C566.582 302.957 565.697 302.359 565.13 301.501C564.563 300.642 564.36 299.593 564.566 298.585L579.847 223.811L579.867 223.815Z" fill="#F5F5F5"/>
<path d="M598.106 219.527L586.996 217.257L576.891 266.705L588.001 268.976L598.106 219.527Z" fill="white"/>
<path d="M574.39 316.06C575.125 316.167 575.876 316.084 576.57 315.82C577.404 315.482 578.094 314.863 578.52 314.07C578.766 313.555 578.931 313.005 579.01 312.44C579.13 311.83 579.25 311.18 579.39 310.5C580.5 305 582.09 297.05 584.08 287.17C588.08 267.38 593.7 239.87 599.99 208.92L600.19 209.22L587.33 206.6L583.53 205.82L583.84 205.62C577.04 238.69 570.93 268.45 566.51 289.97C565.4 295.34 564.39 300.19 563.51 304.46C563.29 305.52 563.07 306.55 562.87 307.54C562.77 308.03 562.66 308.54 562.57 309C562.45 309.451 562.377 309.914 562.35 310.38C562.347 311.251 562.639 312.097 563.18 312.78C563.678 313.396 564.356 313.84 565.12 314.05L572 315.52L573.79 315.91C574.19 316 574.39 316.06 574.39 316.06L573.78 315.96L571.98 315.62L565.07 314.24C564.214 314.019 563.455 313.52 562.912 312.822C562.369 312.123 562.073 311.265 562.07 310.38C562.09 309.894 562.16 309.411 562.28 308.94C562.37 308.47 562.47 307.94 562.57 307.49C562.77 306.49 562.97 305.49 563.19 304.4C564.05 300.13 565.03 295.27 566.12 289.89C570.5 268.37 576.55 238.6 583.29 205.51V205.26L583.54 205.31L587.35 206.09L600.21 208.72L600.46 208.77V209.02C594.1 239.97 588.46 267.46 584.38 287.24L579.54 310.53C579.39 311.22 579.26 311.86 579.13 312.47C579.045 313.052 578.866 313.616 578.6 314.14C578.162 314.947 577.454 315.574 576.6 315.91C576.075 316.111 575.511 316.193 574.95 316.15C574.761 316.139 574.573 316.109 574.39 316.06Z" fill="#E0E0E0"/>
<path d="M588.334 183.852L604.735 187.204C605.255 187.31 605.711 187.619 606.003 188.061C606.296 188.504 606.4 189.044 606.294 189.564L601.261 214.195L580.921 210.038L585.951 185.427C586.001 185.166 586.103 184.917 586.251 184.696C586.399 184.475 586.59 184.286 586.812 184.139C587.034 183.992 587.283 183.891 587.544 183.842C587.805 183.793 588.074 183.796 588.334 183.852Z" fill="#EBEBEB"/>
<path d="M601.61 211.63C601.61 211.77 596.99 210.95 591.35 209.8C585.71 208.65 581.17 207.6 581.2 207.46C581.23 207.32 585.82 208.14 591.46 209.29C597.1 210.44 601.63 211.49 601.61 211.63Z" fill="#E0E0E0"/>
<path d="M583.16 207.65C583.01 207.65 583.97 202.37 585.29 195.93C586.61 189.49 587.79 184.28 587.93 184.31C588.07 184.34 587.11 189.59 585.8 196.03C584.49 202.47 583.3 207.68 583.16 207.65Z" fill="#E0E0E0"/>
<path d="M585.89 208.21C585.75 208.21 586.7 202.93 588.02 196.49C589.34 190.05 590.52 184.84 590.66 184.87C590.8 184.9 589.85 190.15 588.53 196.59C587.21 203.03 586 208.24 585.89 208.21Z" fill="#E0E0E0"/>
<path d="M588.71 208.78C588.57 208.78 589.52 203.51 590.84 197.06C592.16 190.61 593.34 185.42 593.48 185.45C593.62 185.48 592.67 190.72 591.35 197.17C590.03 203.62 588.85 208.81 588.71 208.78Z" fill="#E0E0E0"/>
<path d="M591.44 209.34C591.3 209.34 592.26 204.07 593.57 197.62C594.88 191.17 596.07 185.98 596.22 186.01C596.37 186.04 595.4 191.28 594.09 197.73C592.78 204.18 591.59 209.37 591.44 209.34Z" fill="#E0E0E0"/>
<path d="M594.26 209.92C594.12 209.92 595.08 204.64 596.39 198.2C597.7 191.76 598.89 186.55 599.03 186.58C599.17 186.61 598.22 191.86 596.9 198.3C595.58 204.74 594.4 210 594.26 209.92Z" fill="#E0E0E0"/>
<path d="M597 210.48C596.86 210.48 597.81 205.2 599.13 198.76C600.45 192.32 601.63 187.11 601.77 187.14C601.91 187.17 600.96 192.42 599.64 198.86C598.32 205.3 597.14 210.51 597 210.48Z" fill="#E0E0E0"/>
<path d="M599.82 211.06C599.68 211.06 600.63 205.78 601.95 199.34C603.27 192.9 604.45 187.69 604.59 187.72C604.73 187.75 603.78 192.99 602.46 199.44C601.14 205.89 600 211.08 599.82 211.06Z" fill="#E0E0E0"/>
<path d="M619.861 254.694L633.194 253.466L640.787 335.937C640.881 336.962 640.564 337.982 639.907 338.774C639.249 339.565 638.303 340.062 637.279 340.157L631.663 340.674C630.638 340.768 629.618 340.452 628.826 339.794C628.035 339.136 627.537 338.191 627.443 337.166L619.851 254.695L619.861 254.694Z" fill="#E0E0E0"/>
<path d="M621.206 269.347L634.54 268.12L639.973 327.14C640.068 328.165 639.751 329.185 639.093 329.976C638.435 330.767 637.49 331.265 636.465 331.359L630.849 331.876C629.824 331.971 628.804 331.654 628.013 330.996C627.222 330.338 626.724 329.393 626.63 328.368L621.196 269.348L621.206 269.347Z" fill="#F5F5F5"/>
<path d="M633.968 261.957L625.076 262.776L628.719 302.349L637.611 301.53L633.968 261.957Z" fill="white"/>
<path d="M637.28 340.17C637.859 340.074 638.416 339.871 638.92 339.57C639.518 339.192 639.999 338.655 640.31 338.02C640.514 337.616 640.642 337.179 640.69 336.73C640.717 336.215 640.69 335.699 640.61 335.19C640.19 330.75 639.61 324.36 638.81 316.42C637.32 300.49 635.25 278.37 632.93 253.51L633.21 253.74L623.74 254.61L619.88 254.97L620.11 254.69C622.49 280.88 624.63 304.41 626.17 321.42C626.55 325.66 626.89 329.5 627.17 332.87C627.33 334.55 627.44 336.14 627.6 337.55C627.724 338.181 628.007 338.77 628.422 339.262C628.836 339.753 629.369 340.131 629.97 340.36C630.974 340.636 632.028 340.677 633.05 340.48L635.35 340.29L636.77 340.19H637.26L636.78 340.26L635.36 340.41L633.06 340.65L631.59 340.79C631.017 340.843 630.44 340.768 629.9 340.57C629.261 340.335 628.692 339.941 628.247 339.425C627.802 338.909 627.497 338.287 627.36 337.62C627.18 336.16 627.06 334.62 626.89 332.92C626.57 329.55 626.2 325.71 625.79 321.47C624.21 304.47 622.02 280.94 619.57 254.75V254.49H619.83L623.69 254.13L633.16 253.26H633.42V253.52C635.67 278.39 637.68 300.52 639.13 316.45C639.82 324.39 640.38 330.79 640.77 335.23C640.839 335.754 640.859 336.283 640.83 336.81C640.752 337.404 640.542 337.973 640.215 338.475C639.888 338.977 639.452 339.399 638.94 339.71C638.559 339.94 638.138 340.1 637.7 340.18C637.56 340.186 637.42 340.183 637.28 340.17Z" fill="#E0E0E0"/>
<path d="M618.906 237.267L631.184 236.137C631.712 236.088 632.238 236.252 632.646 236.591C633.054 236.93 633.31 237.417 633.359 237.945L635.132 257.204L618.86 258.702L617.088 239.453C617.063 239.19 617.09 238.925 617.167 238.672C617.245 238.419 617.372 238.185 617.541 237.981C617.71 237.778 617.918 237.61 618.152 237.488C618.386 237.365 618.642 237.29 618.906 237.267Z" fill="#EBEBEB"/>
<path d="M634.82 255.18C629.414 256.026 623.96 256.527 618.49 256.68C621.179 256.174 623.898 255.84 626.63 255.68C629.346 255.333 632.082 255.166 634.82 255.18Z" fill="#E0E0E0"/>
<path d="M620 256.38C619.448 253.297 619.074 250.186 618.88 247.06C618.5 243.954 618.3 240.829 618.28 237.7C618.82 240.784 619.194 243.896 619.4 247.02C619.768 250.127 619.969 253.251 620 256.38Z" fill="#E0E0E0"/>
<path d="M622.2 256.18C621.648 253.097 621.274 249.986 621.08 246.86C620.7 243.754 620.5 240.629 620.48 237.5C621.019 240.581 621.39 243.689 621.59 246.81C621.964 249.92 622.168 253.048 622.2 256.18Z" fill="#E0E0E0"/>
<path d="M624.45 256C623.91 252.916 623.536 249.805 623.33 246.68C622.962 243.573 622.761 240.449 622.73 237.32C623.282 240.403 623.656 243.514 623.85 246.64C624.224 249.746 624.425 252.871 624.45 256Z" fill="#E0E0E0"/>
<path d="M626.64 255.77C626.1 252.686 625.726 249.575 625.52 246.45C625.152 243.343 624.952 240.219 624.92 237.09C625.452 240.171 625.813 243.279 626 246.4C626.382 249.51 626.595 252.637 626.64 255.77Z" fill="#E0E0E0"/>
<path d="M628.9 255.56C628.348 252.477 627.974 249.366 627.78 246.24C627.4 243.134 627.2 240.009 627.18 236.88C627.72 239.964 628.094 243.075 628.3 246.2C628.668 249.307 628.869 252.431 628.9 255.56Z" fill="#E0E0E0"/>
<path d="M631.09 255.36C630.547 252.264 630.183 249.138 630 246C629.62 242.894 629.42 239.769 629.4 236.64C629.94 239.724 630.314 242.836 630.52 245.96C630.88 249.081 631.07 252.219 631.09 255.36Z" fill="#E0E0E0"/>
<path d="M633.34 255.15C632.8 252.069 632.426 248.961 632.22 245.84C631.852 242.73 631.651 239.602 631.62 236.47C632.172 239.553 632.546 242.664 632.74 245.79C633.12 248.896 633.321 252.021 633.34 255.15Z" fill="#E0E0E0"/>
<path d="M233.24 181.63C231.48 173.81 224.05 167.1 216.08 167.88C211.37 168.34 207.08 171.25 204.25 175C203.233 176.266 202.307 177.602 201.48 179C200.653 177.602 199.727 176.266 198.71 175C195.83 171.24 191.6 168.33 186.89 167.86C178.89 167.07 171.49 173.78 169.71 181.59C167.93 189.4 170.88 197.7 175.71 204.1C180.54 210.5 188.54 218.7 202.12 221.82C211.07 219.76 222.42 210.52 227.24 204.13C232.06 197.74 235 189.44 233.24 181.63Z" fill="#E0E0E0"/>
<path d="M231.77 196.13H231.51H230.73H227.73L216.78 196.21L216.97 196.07C215.97 199.61 214.86 203.75 213.61 208.29L213.41 209.03L213.16 208.31L206.78 190C206.07 188 205.38 185.95 204.7 184L205.17 184.05L198 196.23L197.94 196.34H197.8L178.55 196.24L173.1 196.17H171.65C171.488 196.193 171.323 196.193 171.16 196.17H171.65H173.1L178.55 196.11L197.8 196.02L197.6 196.14L204.71 183.92L204.99 183.43L205.18 183.96C205.86 185.96 206.55 187.96 207.26 189.96L213.63 208.39H213.17C214.46 203.85 215.62 199.72 216.62 196.19V196.05H216.76L227.71 196.14H230.71H231.49L231.77 196.13Z" fill="#FAFAFA"/>
<path d="M360.55 147.88L357.13 236.19L312.91 234.76C312.39 229.63 311.81 209.76 311.81 209.76C311.81 209.76 293.35 207.76 292.26 189.46C291.73 180.57 292.13 162.11 292.68 145.46C292.98 136.588 296.738 128.185 303.151 122.046C309.564 115.908 318.123 112.521 327 112.61C331.536 112.667 336.014 113.631 340.172 115.445C344.33 117.259 348.082 119.887 351.208 123.174C354.335 126.461 356.772 130.34 358.376 134.583C359.981 138.826 360.72 143.347 360.55 147.88Z" fill="#FFBE9D"/>
<path d="M311.79 209.76C320.258 209.517 328.463 206.76 335.36 201.84C335.36 201.84 330.36 215.29 311.98 214.51L311.79 209.76Z" fill="#EB996E"/>
<path d="M298.69 158.56C298.716 159.243 299.008 159.888 299.503 160.359C299.998 160.83 300.657 161.088 301.34 161.08C301.674 161.091 302.006 161.035 302.318 160.915C302.63 160.796 302.915 160.615 303.156 160.384C303.397 160.153 303.59 159.876 303.723 159.57C303.856 159.264 303.926 158.934 303.93 158.6C303.904 157.916 303.613 157.27 303.118 156.798C302.623 156.325 301.964 156.064 301.28 156.07C300.946 156.061 300.613 156.118 300.301 156.239C299.989 156.359 299.704 156.541 299.463 156.772C299.222 157.004 299.03 157.282 298.897 157.588C298.764 157.895 298.694 158.226 298.69 158.56Z" fill="#263238"/>
<path d="M297.06 154.79C297.4 155.12 299.31 153.56 302.13 153.43C304.95 153.3 307.08 154.62 307.37 154.26C307.51 154.1 307.15 153.5 306.22 152.88C304.958 152.094 303.484 151.716 302 151.8C300.54 151.867 299.14 152.396 298 153.31C297.16 154 296.89 154.65 297.06 154.79Z" fill="#263238"/>
<path d="M325.38 158.47C325.403 159.149 325.69 159.793 326.178 160.265C326.667 160.737 327.32 161 328 161C328.334 161.011 328.668 160.954 328.98 160.834C329.293 160.714 329.578 160.533 329.82 160.301C330.061 160.069 330.253 159.791 330.386 159.483C330.518 159.176 330.587 158.845 330.59 158.51C330.564 157.839 330.281 157.203 329.798 156.736C329.316 156.268 328.672 156.005 328 156C327.664 155.984 327.329 156.036 327.013 156.152C326.698 156.269 326.409 156.447 326.165 156.678C325.92 156.909 325.725 157.186 325.59 157.494C325.455 157.802 325.384 158.134 325.38 158.47Z" fill="#263238"/>
<path d="M324.77 154C325.11 154.32 327.02 152.76 329.84 152.64C332.66 152.52 334.84 153.82 335.08 153.46C335.22 153.3 334.86 152.7 333.93 152.09C332.671 151.306 331.201 150.928 329.72 151.01C328.259 151.072 326.857 151.602 325.72 152.52C324.87 153.23 324.6 153.86 324.77 154Z" fill="#263238"/>
<path d="M315.53 175.38C315.53 175.22 313.78 175 310.92 174.77C310.2 174.77 309.51 174.62 309.37 174.13C309.271 173.391 309.404 172.64 309.75 171.98C310.34 170.2 310.96 168.35 311.61 166.4C314.2 158.46 316.03 151.95 315.71 151.85C315.39 151.75 313 158.1 310.45 166C309.83 167.953 309.24 169.82 308.68 171.6C308.265 172.488 308.18 173.495 308.44 174.44C308.556 174.689 308.727 174.908 308.94 175.081C309.153 175.254 309.403 175.377 309.67 175.44C310.074 175.526 310.487 175.563 310.9 175.55C313.76 175.61 315.53 175.54 315.53 175.38Z" fill="#263238"/>
<path d="M323.91 176.93C323.46 176.93 323.59 179.93 321.08 182.28C318.57 184.63 315.3 184.39 315.29 184.82C315.29 185.01 316.05 185.38 317.42 185.35C319.213 185.29 320.926 184.599 322.26 183.4C323.544 182.253 324.327 180.648 324.44 178.93C324.5 177.65 324.12 176.9 323.91 176.93Z" fill="#263238"/>
<path d="M323.52 143C323.83 143.76 326.63 143.26 329.95 143.5C333.27 143.74 335.95 144.5 336.39 143.81C336.57 143.47 336.08 142.81 334.96 142.09C333.479 141.25 331.826 140.757 330.126 140.65C328.427 140.542 326.725 140.823 325.15 141.47C324 142 323.38 142.65 323.52 143Z" fill="#263238"/>
<path d="M297.71 146.59C298.24 147.21 300.14 146.45 302.48 146.31C304.82 146.17 306.8 146.54 307.23 145.85C307.41 145.51 307.07 144.85 306.18 144.32C304.985 143.652 303.619 143.353 302.254 143.46C300.889 143.567 299.587 144.075 298.51 144.92C297.72 145.62 297.48 146.29 297.71 146.59Z" fill="#263238"/>
<path d="M339.72 129L339.83 129.07C342.856 131.236 344.933 134.484 345.63 138.14C345.63 138.27 345.63 138.39 345.7 138.51C346.7 143.7 346.78 149.03 347.8 154.21C348.82 159.39 350.87 164.62 354.9 168.03C356.56 169.44 359.41 170.32 360.64 168.53C361.041 167.785 361.228 166.944 361.18 166.1C361.56 153.43 364.47 142.1 363.83 128.88C363.75 127.111 363.251 125.387 362.373 123.85C361.495 122.313 360.263 121.007 358.78 120.04C355.92 118.19 352.45 116.3 349.45 117.89C346.45 119.48 342.74 125.43 340.45 127.98" fill="#263238"/>
<path d="M354.79 156.77C355.09 156.62 367.2 152.45 367.39 165C367.58 177.55 354.95 175.15 354.92 174.79C354.89 174.43 354.79 156.77 354.79 156.77Z" fill="#FFBE9D"/>
<path d="M358.68 170C358.74 170 358.9 170.15 359.27 170.31C359.796 170.519 360.383 170.519 360.91 170.31C362.23 169.8 363.31 167.68 363.34 165.42C363.355 164.344 363.13 163.278 362.68 162.3C362.557 161.909 362.341 161.553 362.05 161.264C361.759 160.975 361.402 160.761 361.01 160.64C360.758 160.577 360.491 160.605 360.257 160.718C360.024 160.831 359.837 161.023 359.73 161.26C359.56 161.62 359.65 161.87 359.58 161.89C359.51 161.91 359.31 161.68 359.4 161.16C359.464 160.849 359.634 160.57 359.88 160.37C360.224 160.104 360.658 159.983 361.09 160.03C361.606 160.124 362.09 160.348 362.495 160.683C362.899 161.017 363.211 161.45 363.4 161.94C363.95 163.02 364.228 164.218 364.21 165.43C364.21 167.96 362.91 170.34 361.11 170.89C360.775 170.993 360.422 171.019 360.076 170.967C359.73 170.915 359.399 170.786 359.11 170.59C358.71 170.28 358.64 170 358.68 170Z" fill="#EB996E"/>
<path d="M351.34 121.77C354.96 117.12 347.34 109.04 341.34 106.42C335.34 103.8 326.97 105.93 320.62 107.29C316.62 108.15 312.57 109.52 308.52 108.91C305.831 108.337 303.243 107.366 300.84 106.03C298.428 104.696 295.772 103.863 293.03 103.58C290.29 103.47 287.33 104.58 286.03 107.03C284.73 109.48 285.82 113.03 288.48 113.74C285.24 111.46 279.98 113.41 278.99 117.25C278 121.09 281.67 125.33 285.61 124.91C283.99 123.37 281.02 125.29 281 127.53C280.98 129.77 282.81 131.6 284.75 132.72C289.75 135.57 295.84 135.5 301.42 134.28C307 133.06 312.3 130.77 317.85 129.41C323.4 128.05 332.72 125.53 337.85 128.01C341.65 129.83 343.85 134.88 346.21 134.07C347.322 133.626 348.314 132.927 349.106 132.029C349.898 131.13 350.468 130.059 350.77 128.9C351.332 126.568 351.511 124.16 351.3 121.77" fill="#263238"/>
<path d="M289.18 114.65C289.18 114.65 288.94 114.76 288.55 115.04C287.978 115.452 287.534 116.017 287.27 116.67C286.839 117.694 286.744 118.829 287 119.91C287.165 120.62 287.473 121.289 287.904 121.877C288.336 122.465 288.882 122.959 289.51 123.33C291.057 124.227 292.811 124.706 294.6 124.72C296.66 124.732 298.71 124.432 300.68 123.83C304.89 122.61 309.06 120.12 313.46 117.59C317.86 115.06 322.35 112.95 326.81 112.41C328.909 112.136 331.041 112.268 333.09 112.8C334.886 113.267 336.581 114.06 338.09 115.14C340.281 116.673 342.046 118.737 343.22 121.14C343.673 122.001 344.01 122.92 344.22 123.87C344.16 123.87 343.92 122.87 343.07 121.23C341.844 118.919 340.073 116.942 337.91 115.47C336.441 114.443 334.797 113.691 333.06 113.25C331.06 112.749 328.982 112.637 326.94 112.92C322.6 113.47 318.17 115.57 313.8 118.08C309.43 120.59 305.19 123.08 300.9 124.32C298.877 124.929 296.772 125.219 294.66 125.18C292.799 125.152 290.98 124.627 289.39 123.66C288.704 123.218 288.107 122.652 287.63 121.99C287.1 121.207 286.779 120.303 286.696 119.361C286.614 118.42 286.774 117.473 287.16 116.61C287.459 115.94 287.95 115.373 288.57 114.98C288.757 114.842 288.962 114.731 289.18 114.65Z" fill="#455A64"/>
<path d="M333.51 108.31C333.781 108.263 334.058 108.263 334.33 108.31C335.068 108.36 335.8 108.491 336.51 108.7C338.892 109.371 341.015 110.748 342.6 112.649C344.185 114.55 345.158 116.886 345.39 119.35C345.462 120.088 345.462 120.832 345.39 121.57C345.38 121.841 345.322 122.109 345.22 122.36C345.12 122.36 345.29 121.21 345.03 119.36C344.715 116.995 343.737 114.767 342.21 112.934C340.683 111.101 338.669 109.737 336.4 109C334.66 108.45 333.5 108.41 333.51 108.31Z" fill="#455A64"/>
<path d="M363.57 140.46C363.264 140.633 362.921 140.729 362.57 140.74C361.587 140.824 360.601 140.612 359.74 140.13C358.452 139.434 357.406 138.363 356.74 137.06C355.964 135.491 355.386 133.832 355.02 132.12C354.663 130.448 354.102 128.826 353.35 127.29C352.726 126.058 351.747 125.041 350.54 124.37C349.73 123.91 348.81 123.682 347.88 123.71C347.23 123.71 346.88 123.88 346.88 123.83C347.183 123.645 347.526 123.536 347.88 123.51C348.858 123.398 349.848 123.583 350.72 124.04C352.023 124.703 353.091 125.75 353.78 127.04C354.57 128.61 355.148 130.278 355.5 132C355.858 133.671 356.408 135.295 357.14 136.84C357.747 138.085 358.702 139.127 359.89 139.84C360.689 140.315 361.6 140.567 362.53 140.57C363.19 140.53 363.55 140.41 363.57 140.46Z" fill="#455A64"/>
<path d="M362.91 148.75C362.91 148.75 362.81 148.75 362.6 148.83C362.303 148.893 362.002 148.933 361.7 148.95C360.58 149.033 359.454 148.945 358.36 148.69C354.692 147.836 351.479 145.634 349.36 142.52C347.289 139.438 346.02 135.887 345.67 132.19C345.633 131.569 345.536 130.952 345.38 130.35C345.256 129.911 345.001 129.52 344.65 129.23C344.338 128.99 343.962 128.847 343.57 128.82C343.775 128.753 343.994 128.74 344.206 128.782C344.418 128.824 344.616 128.92 344.78 129.06C345.186 129.357 345.489 129.773 345.65 130.25C345.843 130.865 345.97 131.498 346.03 132.14C346.48 135.747 347.768 139.199 349.79 142.22C351.841 145.221 354.899 147.388 358.41 148.33C359.885 148.664 361.398 148.805 362.91 148.75Z" fill="#455A64"/>
<path d="M275.18 465.51L417.18 464.59L402.85 378.77L400.36 231.22L372 222.56L358 214.66L311.93 220.49L306 228C306 228 285.84 234.8 277.12 238.79L276.52 239.06C270.335 241.881 265.096 246.426 261.43 252.15L223 311.94L166.8 279.17L147 308C147 308 216 365.44 228.51 364.27C241.02 363.1 245.36 363.09 249.68 357.21C252.99 352.69 266 337.38 272.2 327.15L278.53 397.84L275.18 465.51Z" fill="#EBEBEB"/>
<path d="M320.17 465.6C320.02 465.6 318.88 434.16 317.63 395.37C316.38 356.58 315.46 325.12 315.63 325.12C315.8 325.12 316.91 356.55 318.17 395.36C319.43 434.17 320.31 465.6 320.17 465.6Z" fill="#263238"/>
<path d="M312.11 219.91L315.68 327.25L357.96 214.66L312.11 219.91Z" fill="#FFBE9D"/>
<path d="M316 333.3C315.94 333.196 315.893 333.085 315.86 332.97C315.76 332.73 315.64 332.41 315.49 331.97C315.14 331.09 314.66 329.85 314.04 328.26C312.75 325.06 310.86 320.43 308.24 314.84C306.9 312.05 305.4 309.02 303.62 305.84C301.779 302.483 299.557 299.349 297 296.5C295.6 295.06 293.93 293.55 293.34 291.34C293.086 290.244 293.114 289.102 293.42 288.02C293.69 286.94 294.07 285.9 294.42 284.85C295.81 280.62 297.26 276.25 298.73 271.78L298.82 271.5L299.09 271.84L282.09 273.38V272.88L291.16 254.88C293.95 249.4 296.47 244.57 298.64 240.59C300.81 236.61 302.64 233.47 303.91 231.36C304.56 230.3 305.08 229.49 305.44 228.95L305.85 228.35C305.95 228.21 306 228.14 306.01 228.15L305.89 228.37L305.51 229C305.17 229.59 304.68 230.4 304.06 231.45C302.81 233.59 301.06 236.74 298.92 240.74C296.78 244.74 294.3 249.58 291.54 255.08L287.2 263.78L284.87 268.44L283.66 270.84L283.03 272.05L282.7 272.65L282.53 272.96L282.43 273.11C282.359 273.221 282.254 273.306 282.13 273.35V272.85L299.13 271.29H299.52L299.4 271.67L299.31 271.94C297.83 276.41 296.38 280.78 294.99 285.01C294.33 287.1 293.37 289.2 293.91 291.22C294.45 293.24 296.03 294.72 297.43 296.16C300.019 299.065 302.257 302.263 304.1 305.69C305.88 308.87 307.36 311.92 308.68 314.69C311.26 320.31 313.11 324.97 314.34 328.2C314.94 329.82 315.4 331.08 315.69 331.94C315.843 332.367 315.953 332.7 316.02 332.94C316.021 333.06 316.014 333.181 316 333.3Z" fill="#263238"/>
<path d="M315.86 334.31C315.845 334.194 315.845 334.076 315.86 333.96L316.02 332.96C316.256 331.652 316.607 330.367 317.07 329.12C318.885 324.552 321.188 320.193 323.94 316.12C325.65 313.52 327.6 310.72 329.81 307.78C332.142 304.644 334.646 301.639 337.31 298.78C340.272 295.571 343.515 292.633 347 290C348.861 288.623 350.794 287.344 352.79 286.17C354.79 284.97 356.89 283.83 358.89 282.5L358.82 282.86C356.094 278.79 352.4 275.46 348.07 273.17L347.71 272.98L348.04 272.74C354.223 268.131 361.427 265.081 369.04 263.85L368.85 264.06L371.02 234.22C371.3 230.62 371.52 227.76 371.68 225.78C371.76 224.78 371.82 224.08 371.87 223.55L371.93 222.98C371.918 222.914 371.918 222.846 371.93 222.78C371.937 222.846 371.937 222.913 371.93 222.98V223.55C371.93 224.09 371.86 224.84 371.81 225.79C371.69 227.79 371.51 230.63 371.29 234.24C370.8 241.53 370.12 251.84 369.29 264.1V264.28H369.11C361.571 265.516 354.44 268.548 348.32 273.12V272.69C352.727 275.016 356.486 278.401 359.26 282.54L359.41 282.75L359.19 282.9C357.19 284.24 355.07 285.39 353.06 286.59C351.078 287.747 349.158 289.009 347.31 290.37C343.857 292.982 340.638 295.889 337.69 299.06C335.023 301.917 332.519 304.922 330.19 308.06C327.97 310.97 326 313.75 324.28 316.34C321.503 320.367 319.157 324.673 317.28 329.19C316.796 330.42 316.414 331.687 316.14 332.98C316.05 333.4 315.98 333.74 315.93 333.98C315.919 334.092 315.895 334.203 315.86 334.31Z" fill="#263238"/>
<path d="M369.64 301.58H339.78V307.39H369.64V301.58Z" fill="#263238"/>
<path d="M362.9 353.91C362.738 353.984 362.566 354.034 362.39 354.06L360.91 354.38C359.085 354.759 357.238 355.023 355.38 355.17C352.6 355.422 349.798 355.081 347.16 354.17C343.876 353.027 341.156 350.669 339.56 347.58C338.143 344.464 337.436 341.072 337.49 337.65C337.49 334.52 337.59 331.75 337.6 329.39C337.61 327.03 337.68 325.14 337.75 323.82C337.75 323.16 337.82 322.65 337.85 322.31C337.849 322.13 337.876 321.951 337.93 321.78C337.942 321.956 337.942 322.134 337.93 322.31C337.93 322.72 337.93 323.22 337.93 323.83C337.93 325.22 337.93 327.1 337.93 329.39V337.64C337.902 340.988 338.605 344.302 339.99 347.35C341.521 350.323 344.128 352.601 347.28 353.72C349.845 354.623 352.568 354.987 355.28 354.79C357.126 354.678 358.965 354.471 360.79 354.17L362.29 353.95C362.491 353.913 362.696 353.899 362.9 353.91Z" fill="#263238"/>
<path d="M368.3 321.09C368.3 321.23 361.5 321.51 353.12 321.7C344.74 321.89 337.93 321.94 337.93 321.79C337.93 321.64 344.72 321.38 353.11 321.18C361.5 320.98 368.3 321 368.3 321.09Z" fill="#263238"/>
<path d="M353.51 321.3V311.39C353.51 310.618 353.817 309.878 354.362 309.332C354.908 308.787 355.648 308.48 356.42 308.48C357.192 308.48 357.932 308.787 358.478 309.332C359.023 309.878 359.33 310.618 359.33 311.39V327.72C359.339 327.851 359.322 327.983 359.281 328.108C359.239 328.233 359.173 328.348 359.087 328.448C358.912 328.648 358.665 328.771 358.4 328.79C358.135 328.809 357.873 328.721 357.672 328.547C357.472 328.372 357.349 328.125 357.33 327.86C357.33 327.74 357.33 327.6 357.33 327.47C357.33 324.98 357.05 321.18 357.05 321.18L353.51 321.3Z" fill="#34CB79"/>
<path d="M353 338.42C352.742 336.096 352.655 333.757 352.74 331.42C352.654 329.083 352.741 326.744 353 324.42C353.259 326.744 353.346 329.083 353.26 331.42C353.345 333.757 353.258 336.096 353 338.42Z" fill="#263238"/>
<path d="M358.63 351.39C358.49 351.39 358.37 346.39 358.37 340.25C358.37 334.11 358.49 329.11 358.63 329.11C358.77 329.11 358.89 334.11 358.89 340.25C358.89 346.39 358.78 351.39 358.63 351.39Z" fill="#263238"/>
<path d="M312.86 242.49L326.75 259.44C336.56 249.54 343.61 239.76 349.75 235.44C349.75 235.44 315.69 328.76 315.64 327.21C315.59 325.66 312.86 242.49 312.86 242.49Z" fill="#8257E5"/>
<path d="M349.79 235.48C349.686 235.621 349.569 235.752 349.44 235.87L348.36 236.87C347.42 237.76 346.08 239.08 344.44 240.72C341.15 243.99 336.78 248.72 332.01 253.92C327.24 259.12 322.81 263.82 319.45 267.04C317.77 268.65 316.39 269.92 315.4 270.77L314.26 271.77C314.133 271.893 313.992 272 313.84 272.09C313.84 272.09 313.95 271.94 314.19 271.7L315.26 270.7C316.21 269.81 317.55 268.49 319.19 266.85C322.47 263.58 326.84 258.85 331.62 253.65C336.4 248.45 340.82 243.75 344.18 240.53C345.86 238.92 347.24 237.65 348.23 236.8L349.36 235.8C349.63 235.57 349.77 235.46 349.79 235.48Z" fill="#263238"/>
<path d="M326.66 259.37C326.55 259.46 323.37 255.76 319.56 251.1C315.75 246.44 312.75 242.58 312.86 242.49C312.97 242.4 316.15 246.1 319.96 250.77C323.77 255.44 326.77 259.28 326.66 259.37Z" fill="#263238"/>
<path d="M267.62 274.91C267.684 275.138 267.725 275.373 267.74 275.61C267.81 276.12 267.89 276.79 267.99 277.61C268.2 279.36 268.47 281.89 268.79 285.03C269.42 291.3 270.17 299.97 270.95 309.55C271.73 319.13 272.45 327.75 272.95 334.08C273.21 337.17 273.42 339.7 273.57 341.51C273.64 342.35 273.69 343.02 273.73 343.51C273.748 343.746 273.748 343.984 273.73 344.22C273.664 343.991 273.621 343.757 273.6 343.52C273.54 343.01 273.46 342.34 273.35 341.52C273.14 339.77 272.87 337.24 272.56 334.1C271.93 327.83 271.17 319.16 270.39 309.58C269.61 300 268.9 291.38 268.39 285.05C268.13 281.96 267.92 279.43 267.76 277.62C267.7 276.78 267.65 276.11 267.61 275.62C267.589 275.384 267.592 275.146 267.62 274.91Z" fill="#263238"/>
<path d="M398.31 231C398.31 231 420.57 231 426.15 273.82C431.73 316.64 444 395.17 421.69 410.06C399.38 424.95 296 423.9 296 423.9V382.42L380.82 373.06C380.82 373.06 380.5 365.34 384.82 365.4L380 267.52C380 267.52 379 232.86 398.31 231Z" fill="#EBEBEB"/>
<path d="M380.22 300.05C380.22 300.05 380.22 300.45 380.31 301.23C380.4 302.01 380.42 303.23 380.51 304.71C380.67 307.78 380.91 312.26 381.22 318C381.81 329.51 382.66 346.05 383.7 366.2V366.41H383.48C382.763 366.428 382.074 366.693 381.53 367.16C380.978 367.687 380.566 368.344 380.33 369.07C379.828 370.611 379.611 372.231 379.69 373.85V374.06H379.49L296.03 382.65L296.26 382.39V423.9L296.01 423.65C332.12 424.04 363.61 422.65 385.86 419.8C391.43 419.09 396.4 418.28 400.73 417.43C404.412 416.704 408.054 415.786 411.64 414.68C413.09 414.19 414.37 413.68 415.47 413.29C416.57 412.9 417.47 412.43 418.18 412.06L419.76 411.16L420.31 410.87C420.31 410.87 420.14 410.99 419.79 411.2L418.22 412.14C417.51 412.52 416.59 412.91 415.52 413.42C414.45 413.93 413.15 414.34 411.69 414.84C408.107 415.98 404.465 416.928 400.78 417.68C396.45 418.56 391.47 419.39 385.91 420.12C363.64 423.01 332.13 424.52 296 424.12H295.75V423.87C295.75 411.87 295.75 399.21 295.75 386.18V382.18H295.99L379.45 373.68L379.25 373.91C379.16 372.215 379.391 370.519 379.93 368.91C380.188 368.122 380.638 367.411 381.24 366.84C381.865 366.31 382.651 366.007 383.47 365.98L383.27 366.2C382.27 346.05 381.52 329.51 380.98 317.99C380.72 312.25 380.51 307.77 380.37 304.7C380.31 303.18 380.27 302.02 380.23 301.22C380.19 300.42 380.22 300.05 380.22 300.05Z" fill="#263238"/>
<path d="M395.7 376.3C395.61 376.3 395.28 375.44 394.52 374.14C393.519 372.452 392.237 370.947 390.73 369.69C389.215 368.442 387.501 367.459 385.66 366.78C384.25 366.27 383.31 366.11 383.33 366.02C384.164 366.012 384.994 366.15 385.78 366.43C387.713 367.023 389.51 367.993 391.065 369.286C392.621 370.579 393.904 372.167 394.84 373.96C395.264 374.682 395.556 375.475 395.7 376.3Z" fill="#263238"/>
<path d="M385.73 384C384.529 380.043 382.316 376.469 379.31 373.63C379.871 373.891 380.377 374.258 380.8 374.71C381.904 375.709 382.861 376.861 383.64 378.13C384.428 379.392 385.033 380.759 385.44 382.19C385.657 382.768 385.755 383.383 385.73 384Z" fill="#263238"/>
<path d="M92.6699 262.34L153.47 424L282.44 426.61L229.29 263.45L92.6699 262.34Z" fill="#5B4198"/>
<g opacity="0.5">
<path opacity="0.5" d="M173.88 424.29C173.88 424.29 143 365 133.41 325.44C127.94 303.07 123.07 262.54 123.07 262.54L203.57 263.25C203.57 263.25 230.27 305.74 245.64 348.2C254.845 373.531 261.596 399.688 265.8 426.31L224.49 425.4L210.9 385.78C210.9 385.78 206.66 388.07 200.83 385.11L214.83 425.19L173.88 424.29Z" fill="white"/>
</g>
<path d="M218 360.61C217.25 358.43 214 350.73 214.52 346.89C215.04 343.05 218.84 338.89 219.05 335.04C219.26 331.19 219.37 322.61 218.39 318.43C217.359 314.733 216.093 311.106 214.6 307.57C214.6 307.57 208.77 298.34 202.91 298.13L195.78 297.87C195.78 297.87 190.62 299.11 193.12 305.49C195.62 311.87 201.52 322.82 202.37 324.71C203.22 326.6 207.2 333.9 206.3 338.58C205.4 343.26 198.59 356.32 199.49 359.5L195.84 359.37C195.84 359.37 192.47 353.53 187.74 351.06C183.01 348.59 172.86 337.93 170.74 331.56C168.62 325.19 166.24 310.37 164.81 305.88C163.38 301.39 161.17 297.45 157.46 296.45C153.75 295.45 148.78 296.71 148.78 296.71C148.78 296.71 142.13 299 145.1 309C148.07 319 149.74 319.61 153.26 325.46C156.78 331.31 157.67 333.06 160.46 335.6C163.25 338.14 169.85 340.95 172.69 347.06C175.53 353.17 177 360.26 182.08 369C187.16 377.74 189.08 381 193.08 381C197.08 381 198.38 376.47 198.53 373.75C198.627 372.322 198.627 370.888 198.53 369.46L203.37 369.64C203.37 369.64 208.84 379.86 214.58 381.78C220.32 383.7 219.92 378.54 220.21 376.54C220.5 374.54 218.79 362.78 218 360.61ZM189.65 372.41C188.13 371.63 185.48 366.51 182.85 362.07C180.85 358.75 181.06 357 181.27 356.33C181.304 356.213 181.354 356.102 181.42 356L181.34 356.11C181.54 354.95 183.49 355.46 184.92 356.03C185.97 356.45 190.97 358.4 192.6 365.64C194.23 372.88 191.21 373.18 189.68 372.41H189.65ZM214.73 373.32C213.73 374 210.36 373.47 207.01 366.17C203.66 358.87 207.43 357.23 208.22 356.88C209.29 356.4 210.94 356.02 211.94 357.22L211.79 357.11C211.924 357.214 212.051 357.328 212.17 357.45C213.601 359.047 214.438 361.088 214.54 363.23C215 367.58 215.78 372.64 214.76 373.32H214.73Z" fill="white"/>
<path d="M197.55 357C198.75 356.92 197.9 352.36 197.9 352.36C198.029 350.642 198.029 348.918 197.9 347.2C197.68 345.05 198.79 343.08 199.56 341.09C200.33 339.1 199.56 333.79 198.56 331.09C197.56 328.39 198.26 328.18 198.26 328.18C201.34 327.18 198.5 320.77 196.43 314.78C194.36 308.79 192.3 309.22 192.3 309.22C192.3 309.22 190.92 309.17 190.13 314.05C189.34 318.93 187.99 320.66 185.03 320.65H183.45C180.45 320.65 177.82 318.55 173.62 313.49C169.42 308.43 168.05 308.38 168.05 308.38C168.05 308.38 165.64 307.79 167.68 313.78C169.72 319.77 171.25 326.11 175.11 327.39C175.11 327.39 175.91 327.67 176.82 330.39C177.73 333.11 180.59 338.46 182.76 340.55C184.93 342.64 187.44 344.75 188.7 346.93C189.96 349.11 192.31 352.22 192.31 352.22C192.31 352.22 195.18 356.86 196.46 357.03L197.55 357Z" fill="white"/>
<path d="M160.12 264C160.12 264 158.55 264.45 159.68 267.08C160.81 269.71 160.68 271.26 161.33 271.97C162.02 272.683 162.754 273.351 163.53 273.97C163.53 273.97 161.73 274.59 163.06 277.4C164.39 280.21 164.73 282.98 165.34 284.21C165.95 285.44 167.24 285.84 167.84 286.55C168.44 287.26 165.84 286.47 166.52 288.91C167.2 291.35 168.74 293.13 168.73 295.38C168.72 297.63 169.82 300.59 171.96 301.7C174.1 302.81 173.7 304.35 173.76 305.56C173.887 307.219 174.223 308.855 174.76 310.43C175.6 313.56 180.41 318.43 183.36 318.16C186.31 317.89 189.14 314.41 188.43 312.31C187.223 309.445 185.606 306.771 183.63 304.37C182.38 303.12 181.32 303.08 181.55 301.71C181.78 300.34 183.32 302.46 183.25 300.56C183.308 298.602 182.801 296.668 181.79 294.99C180.6 293.22 180.24 291.49 179.1 289.2C177.96 286.91 175.73 286.49 175.91 285.98C176.09 285.47 177.31 285.69 176.3 283.41C175.29 281.13 175.23 282.68 174.15 279.19C173.07 275.7 172.58 273.61 171.53 273.92C170.48 274.23 170.64 272.68 170.27 270.25C169.9 267.82 170.78 268.72 169.27 266.08C167.76 263.44 160.12 264 160.12 264Z" fill="white"/>
<path d="M162.14 349.9L163.47 346.72L161.32 340.33C161.32 340.33 164.92 338.14 169.93 345.41C174.94 352.68 174.61 356.13 174.61 356.13L168.67 355.92C167.842 358.002 167.767 360.309 168.46 362.44C169.67 365.72 171.46 365.32 173.05 371.07C173.881 373.701 174.473 376.402 174.82 379.14L193.34 424L185.07 423.7L165.07 376.17C165.07 376.17 162.8 374.7 159.07 367.49C155.34 360.28 151.84 350.91 154.23 348.38C156.62 345.85 162.14 349.9 162.14 349.9Z" fill="white"/>
<path d="M228.19 352.31L224.62 349L222.39 342.61C222.39 342.61 217.17 340.1 217.08 347.18C216.99 354.26 219.73 357.83 219.73 357.83L225.67 358.04C225.67 358.04 229.38 361.48 230.41 364.74C231.44 368 229.41 367.47 231.69 373.25C232.749 376.052 234.012 378.773 235.47 381.39L247.59 426L255.87 426.3L243.39 379C243.39 379 244.71 377.66 243.48 370.54C242.25 363.42 239.4 354.09 235.18 351.32C234.121 350.526 232.79 350.185 231.48 350.371C230.17 350.556 228.987 351.254 228.19 352.31Z" fill="white"/>
<path d="M92.6699 262.34L229.29 263.23H229.44L229.49 263.38C244.42 309.16 262.37 364.22 281.68 423.38L282.68 426.49L282.8 426.84H282.43L153.43 424.21H153.27L153.21 424.06L92.6699 262.34C93.3899 264.27 117.52 328.14 153.67 423.92L153.46 423.77L282.46 426.35L282.21 426.69C281.87 425.69 281.53 424.63 281.21 423.58L229.11 263.52L229.31 263.67L92.6699 262.34Z" fill="#263238"/>
<path d="M296.2 385.8H283.27C283.27 385.8 276.65 379.41 274.85 378.51C273.05 377.61 264.21 374.94 264.21 374.94L267.62 384.4C268.154 384.552 268.678 384.736 269.19 384.95C271.45 385.83 270.82 387.83 269.02 387.83H256C256 387.83 242.66 381.43 240.68 382.6C239.02 383.6 238.44 385.35 240.14 387.83C241.84 390.31 253.53 396.14 254.87 396.59L258.69 397.71L255.1 398.83L238.1 392.9C236.99 392.7 235.47 392.52 234.97 393.16C234.754 393.378 234.585 393.637 234.472 393.922C234.359 394.208 234.306 394.513 234.314 394.819C234.322 395.126 234.393 395.427 234.521 395.706C234.649 395.985 234.833 396.234 235.06 396.44C237.482 398.63 240.052 400.651 242.75 402.49C242.75 402.49 240.04 406.49 242.28 408.49C244.52 410.49 251.04 416.58 251.04 416.58C251.04 416.58 251.72 419.95 253.74 421.52C255.76 423.09 278 423.09 279.57 423.09C281.14 423.09 290.13 417.93 290.13 417.93L296.01 417.31L296.2 385.8Z" fill="#FFBE9D"/>
<path d="M257.65 408.91C256.866 409.162 256.043 409.274 255.22 409.24C254.312 409.243 253.412 409.084 252.56 408.77C251.541 408.367 250.572 407.851 249.67 407.23C247.74 405.98 246.02 404.82 244.78 403.96C244.085 403.538 243.438 403.041 242.85 402.48C243.603 402.792 244.32 403.185 244.99 403.65C246.27 404.43 247.99 405.54 249.99 406.79C250.864 407.39 251.795 407.902 252.77 408.32C253.566 408.643 254.411 408.829 255.27 408.87C256.71 408.94 257.65 408.82 257.65 408.91Z" fill="#EB996E"/>
<path d="M258.67 417.23C258.72 417.23 258.19 417.87 256.99 418.18C255.418 418.517 253.776 418.241 252.4 417.41C251.051 416.643 249.801 415.713 248.68 414.64C248.18 414.233 247.751 413.747 247.41 413.2C247.53 413.06 249.57 415.2 252.65 416.95C253.926 417.725 255.432 418.033 256.91 417.82C257.513 417.675 258.102 417.478 258.67 417.23Z" fill="#EB996E"/>
<path d="M265 398.82C263.82 398.967 262.623 398.875 261.48 398.55C260.302 398.394 259.167 398.007 258.14 397.41C259.307 397.513 260.462 397.724 261.59 398.04C262.748 398.196 263.889 398.457 265 398.82Z" fill="#EB996E"/>
<path d="M87.6299 291.57C86.9962 291.209 86.4419 290.724 86.0005 290.143C85.5591 289.563 85.2395 288.899 85.0611 288.192C84.8827 287.485 84.8491 286.749 84.9623 286.029C85.0755 285.308 85.3332 284.618 85.7199 284C86.1931 283.12 86.881 282.373 87.7199 281.83C89.8899 280.68 109.09 277.08 111.15 276.83C113.21 276.58 113.59 280.5 110.9 282.45C108.21 284.4 87.6799 291.59 87.6799 291.59L87.6299 291.57Z" fill="#FFBE9D"/>
<path d="M92.0999 305.49C91.47 305.128 90.9192 304.643 90.4804 304.064C90.0415 303.485 89.7236 302.824 89.5454 302.12C89.3672 301.415 89.3325 300.682 89.4432 299.964C89.5539 299.246 89.8078 298.558 90.1899 297.94C90.6602 297.058 91.3488 296.311 92.1899 295.77C94.3599 294.62 113.96 289.47 115.62 290.77C117.62 292.27 118.06 294.43 115.37 296.39C112.68 298.35 92.1499 305.53 92.1499 305.53L92.0999 305.49Z" fill="#FFBE9D"/>
<path d="M95.9998 302.61C95.0942 302.819 94.2458 303.225 93.5147 303.799C92.7837 304.372 92.1879 305.1 91.7698 305.93C91.3112 306.823 91.1735 307.847 91.3798 308.83C91.6968 310.302 92.4075 311.659 93.4361 312.758C94.4647 313.857 95.7725 314.656 97.2198 315.07C100.73 316.17 112.16 313.6 112.16 313.6L109.52 306.23L117.52 303.61C120.78 302.31 119.2 297.21 115.28 298.2C114 298.52 100.58 301.47 95.9998 302.61Z" fill="#FFBE9D"/>
<path d="M89.9999 298.14C89.3689 297.779 88.8171 297.295 88.3775 296.716C87.9378 296.137 87.6194 295.475 87.4411 294.771C87.2628 294.066 87.2284 293.333 87.3399 292.614C87.4513 291.896 87.7064 291.208 88.0899 290.59C88.563 289.71 89.251 288.963 90.0899 288.42C92.2599 287.27 109.72 284.16 111.75 283.73C113.78 283.3 115.96 287.05 113.27 289C110.58 290.95 89.9999 298.14 89.9999 298.14Z" fill="#FFBE9D"/>
<path d="M109.73 291.13C108.732 291.471 107.709 291.732 106.67 291.91C104.77 292.33 102.14 292.91 99.23 293.45C96.7509 293.84 94.3726 294.713 92.23 296.02C91.3908 296.642 90.6405 297.375 90 298.2C90 298.2 90.08 297.9 90.37 297.43C90.7988 296.77 91.3404 296.192 91.97 295.72C92.8847 295.03 93.8954 294.477 94.97 294.08C96.2931 293.6 97.6502 293.219 99.03 292.94C101.95 292.36 104.6 291.88 106.52 291.55C107.576 291.316 108.65 291.175 109.73 291.13Z" fill="#EB996E"/>
<path d="M106.36 284.75C105.406 285.072 104.426 285.31 103.43 285.46L96.2999 286.84C93.9337 287.232 91.6756 288.115 89.6699 289.43C88.9316 290.073 88.2614 290.79 87.6699 291.57C87.6699 291.57 87.7499 291.28 88.0199 290.83C88.4092 290.189 88.9027 289.618 89.4799 289.14C90.9299 287.86 93.4799 286.94 96.2299 286.34C98.9799 285.74 101.56 285.4 103.4 285.1C104.375 284.9 105.365 284.783 106.36 284.75Z" fill="#EB996E"/>
<path d="M110 299.3C109.109 299.658 108.189 299.939 107.25 300.14C105.54 300.6 103.15 301.21 100.49 301.65C98.2074 301.944 96.0034 302.677 94 303.81C93.2578 304.363 92.5862 305.004 92 305.72C92 305.72 92.07 305.45 92.35 305.03C92.7649 304.443 93.2753 303.929 93.86 303.51C95.8432 302.257 98.0744 301.448 100.4 301.14C103.07 300.7 105.4 300.14 107.18 299.79C108.103 299.539 109.047 299.375 110 299.3Z" fill="#EB996E"/>
<path d="M111.08 305.72C109.757 306.431 108.358 306.992 106.91 307.39C105.505 307.944 104.043 308.336 102.55 308.56C103.871 307.847 105.27 307.29 106.72 306.9C108.124 306.343 109.587 305.947 111.08 305.72Z" fill="#EB996E"/>
<path d="M519.31 190.26C520.529 188.478 522.146 187.005 524.033 185.957C525.92 184.908 528.025 184.314 530.182 184.221C532.339 184.127 534.487 184.538 536.458 185.419C538.429 186.3 540.167 187.629 541.535 189.298C542.903 190.968 543.863 192.934 544.34 195.039C544.816 197.145 544.796 199.332 544.28 201.429C543.764 203.525 542.767 205.472 541.368 207.116C539.969 208.76 538.207 210.056 536.22 210.9C538.432 211.987 540.127 213.902 540.935 216.231C541.744 218.559 541.601 221.112 540.539 223.336C539.476 225.56 537.579 227.275 535.26 228.109C532.94 228.943 530.385 228.828 528.15 227.79C527.06 231.63 522.76 233.95 518.78 233.68C514.8 233.41 511.21 231.05 508.49 228.13C505.659 225.095 503.623 221.406 502.564 217.393C501.505 213.38 501.455 209.167 502.42 205.13C504.54 197.13 511.42 190.43 519.63 189.05" fill="#263238"/>
<path d="M525.63 184C525.63 184 525.7 184.09 525.8 184.28C525.945 184.558 526.072 184.845 526.18 185.14C526.6 186.244 526.859 187.402 526.95 188.58C527.101 190.378 526.901 192.189 526.36 193.91C525.685 196.111 524.455 198.101 522.79 199.69V199.36C524.168 201.242 525.076 203.426 525.44 205.73C525.93 208.548 525.56 211.448 524.377 214.053C523.194 216.657 521.254 218.845 518.81 220.33C517.358 221.242 515.751 221.883 514.07 222.22C513.618 222.312 513.16 222.372 512.7 222.4C512.537 222.415 512.373 222.415 512.21 222.4C512.21 222.34 512.87 222.29 514.03 222.02C515.655 221.607 517.202 220.931 518.61 220.02C520.232 218.962 521.623 217.585 522.698 215.974C523.773 214.362 524.509 212.549 524.863 210.645C525.216 208.74 525.179 206.784 524.754 204.894C524.329 203.004 523.525 201.22 522.39 199.65L522.26 199.47L522.42 199.32C524.041 197.803 525.245 195.895 525.92 193.78C526.475 192.112 526.709 190.355 526.61 188.6C526.501 187.028 526.171 185.48 525.63 184Z" fill="#455A64"/>
<path d="M565.62 181.22C565.15 181.551 564.655 181.845 564.14 182.1C563.14 182.63 561.76 183.38 560.01 184.28C556.49 186.09 551.59 188.48 546.08 190.94C540.57 193.4 535.51 195.44 531.82 196.85C529.98 197.55 528.48 198.11 527.43 198.47C526.9 198.68 526.355 198.85 525.8 198.98C526.3 198.705 526.822 198.471 527.36 198.28L531.69 196.51C535.34 195.01 540.37 192.91 545.87 190.51C551.37 188.11 556.29 185.72 559.87 184L564.08 182C564.573 181.701 565.087 181.441 565.62 181.22Z" fill="#8257E5"/>
<path d="M552.59 168.26C552.68 168.37 547.19 173.62 540.32 179.98C533.45 186.34 527.8 191.43 527.7 191.32C527.6 191.21 533.1 186 540 179.6C546.9 173.2 552.49 168.16 552.59 168.26Z" fill="#8257E5"/>
<path d="M492.79 146.6C492.79 135.84 479.93 135.31 473.43 138C469.93 133.2 467.43 130.78 459.38 130.28C453.47 129.9 444.46 132.87 439.92 138.82C437.691 141.844 436.295 145.399 435.87 149.132C435.445 152.864 436.007 156.643 437.5 160.09C438.5 162.36 439.93 164.64 439.65 167.09C439.24 170.65 435.59 172.73 433.23 175.42C431.295 177.729 430.183 180.615 430.067 183.626C429.951 186.636 430.838 189.599 432.59 192.05C434.88 195.05 438.52 197.22 439.73 200.82C440.73 203.82 439.79 207.13 439.98 210.31C440.33 216.16 444.77 221.31 450.21 223.42C455.65 225.53 461.88 225.06 467.38 223.06" fill="#263238"/>
<path d="M445.75 259.47L465.92 250.47L466.61 236.98C466.61 236.98 451.45 234.74 447.96 215.08C446.23 205.3 446.44 189.21 447.03 176.08C447.57 164.23 460.11 152.19 471.92 153.23L510.28 159.82V166.19L510.63 247.43L530.47 257L485.47 310.16L445.75 259.47Z" fill="#A36957"/>
<path d="M454.2 190C454.205 190.658 454.467 191.288 454.931 191.755C455.394 192.222 456.022 192.49 456.68 192.5C457.002 192.519 457.324 192.474 457.628 192.367C457.932 192.26 458.211 192.094 458.451 191.878C458.69 191.662 458.884 191.401 459.021 191.109C459.158 190.818 459.236 190.502 459.25 190.18C459.245 189.521 458.983 188.89 458.52 188.421C458.057 187.953 457.429 187.683 456.77 187.67C456.447 187.65 456.124 187.694 455.818 187.801C455.513 187.908 455.233 188.075 454.993 188.292C454.753 188.51 454.56 188.773 454.424 189.066C454.287 189.359 454.211 189.677 454.2 190Z" fill="#263238"/>
<path d="M450.67 184.32C450.99 184.64 452.88 183.19 455.6 183.15C458.32 183.11 460.34 184.44 460.6 184.1C460.75 183.95 460.42 183.36 459.54 182.74C458.356 181.953 456.961 181.545 455.54 181.57C454.123 181.591 452.749 182.064 451.62 182.92C450.79 183.57 450.51 184.17 450.67 184.32Z" fill="#263238"/>
<path d="M479.63 190C479.632 190.66 479.894 191.292 480.357 191.762C480.821 192.231 481.45 192.5 482.11 192.51C482.432 192.529 482.755 192.483 483.06 192.376C483.364 192.268 483.645 192.101 483.884 191.884C484.123 191.668 484.317 191.405 484.454 191.112C484.59 190.82 484.667 190.503 484.68 190.18C484.672 189.522 484.409 188.892 483.947 188.424C483.484 187.956 482.858 187.686 482.2 187.67C481.877 187.65 481.554 187.694 481.248 187.801C480.943 187.908 480.663 188.075 480.423 188.292C480.183 188.51 479.99 188.773 479.854 189.066C479.717 189.359 479.641 189.677 479.63 190Z" fill="#263238"/>
<path d="M477.43 184.35C477.75 184.68 479.65 183.22 482.37 183.18C485.09 183.14 487.11 184.47 487.37 184.13C487.51 183.98 487.18 183.39 486.3 182.77C485.115 181.986 483.72 181.582 482.3 181.61C480.884 181.629 479.511 182.098 478.38 182.95C477.55 183.61 477.28 184.21 477.43 184.35Z" fill="#263238"/>
<path d="M467.92 204.71C467.92 204.56 466.23 204.3 463.48 203.99C462.78 203.93 462.12 203.81 462 203.34C461.926 202.622 462.077 201.899 462.43 201.27C463.05 199.57 463.7 197.8 464.43 195.94C467.15 188.35 469.1 182.12 468.8 182.01C468.5 181.9 466.04 188.01 463.32 195.55C462.66 197.42 462.04 199.21 461.44 200.91C461.019 201.759 460.91 202.729 461.13 203.65C461.235 203.894 461.394 204.11 461.595 204.284C461.796 204.457 462.033 204.582 462.29 204.65C462.676 204.747 463.072 204.798 463.47 204.8C466.2 204.88 467.91 204.87 467.92 204.71Z" fill="#263238"/>
<path d="M466.61 237C475.896 236.977 484.994 234.377 492.89 229.49C492.89 229.49 486.13 243.39 466.36 241.9L466.61 237Z" fill="#7C3B29"/>
<path d="M469.18 211.25C469.688 210.59 470.356 210.069 471.12 209.737C471.884 209.405 472.72 209.272 473.55 209.35C474.15 209.397 474.735 209.562 475.271 209.837C475.806 210.111 476.282 210.49 476.67 210.95C477.042 211.399 477.267 211.951 477.316 212.533C477.364 213.114 477.233 213.696 476.94 214.2C476.517 214.703 475.952 215.068 475.319 215.246C474.686 215.425 474.014 215.408 473.39 215.2C472.097 214.77 470.901 214.09 469.87 213.2C469.561 212.986 469.293 212.719 469.08 212.41C468.983 212.261 468.932 212.087 468.932 211.91C468.932 211.733 468.983 211.559 469.08 211.41" fill="#7C3B29"/>
<path d="M476 206.45C475.56 206.45 475.6 209.39 473.11 211.53C470.62 213.67 467.47 213.4 467.45 213.82C467.45 214 468.16 214.38 469.45 214.39C471.182 214.385 472.857 213.769 474.18 212.65C475.449 211.574 476.249 210.046 476.41 208.39C476.5 207.16 476.16 206.43 476 206.45Z" fill="#263238"/>
<path d="M476.54 173.7C476.82 174.43 479.54 174.03 482.73 174.36C485.92 174.69 488.53 175.52 488.94 174.84C489.13 174.52 488.67 173.84 487.61 173.14C486.205 172.286 484.624 171.762 482.986 171.61C481.349 171.457 479.699 171.68 478.16 172.26C477 172.76 476.42 173.35 476.54 173.7Z" fill="#263238"/>
<path d="M451.53 176.43C452.02 177.03 453.89 176.36 456.14 176.29C458.39 176.22 460.31 176.63 460.74 175.98C460.93 175.66 460.61 175.04 459.74 174.47C458.605 173.792 457.294 173.465 455.974 173.53C454.653 173.596 453.382 174.052 452.32 174.84C451.57 175.49 451.32 176.13 451.53 176.43Z" fill="#263238"/>
<path d="M441.83 152C444.83 159 451.72 169.38 459.26 170.3C463.04 170.708 466.861 170.143 470.362 168.659C473.862 167.175 476.925 164.821 479.26 161.82C480.4 167.44 486.64 170.42 492.26 171.35C496.26 172.01 500.48 172.05 504.26 170.54C508.04 169.03 511.26 165.75 511.85 161.75C512.44 157.75 506.76 147.89 502.77 147.15" fill="#263238"/>
<path d="M493.68 166C492.361 168.951 492.261 172.304 493.401 175.328C494.542 178.353 496.831 180.805 499.77 182.15C496.99 185.6 496.49 190.49 497.55 194.8C498.61 199.11 501.04 202.96 503.65 206.55C503.65 206.55 496.87 216.36 510.52 223.55C510.52 223.55 520.1 220.55 515.82 206.14C515.479 205.108 515.544 203.986 516 203C516.596 202.164 517.418 201.515 518.37 201.13C521.969 199.126 524.635 195.786 525.794 191.833C526.952 187.88 526.509 183.629 524.56 180C523.958 179.078 523.509 178.065 523.23 177C522.96 175.38 521.72 171.15 522.23 169.6C525.16 161.51 521.39 151.46 511.9 146.47C504.29 142.47 494.76 141.8 488.9 148.13" fill="#263238"/>
<path d="M546.67 323.31L559.67 272.46L523.2 252.39L488 306.65L456.11 253.89L423.26 268.76C421.1 269.741 419.364 271.466 418.37 273.62L388.65 354L428.81 367L433.41 348.37L438.7 380.54L423.42 464.96L554.55 464.48L531.31 377.81L534.54 358.48L546.67 323.31Z" fill="#8257E5"/>
<g opacity="0.3">
<path opacity="0.3" d="M436.58 389.22C445.58 390.74 453.68 382.77 462.8 382.7C471.21 382.64 478.19 389.23 486.38 391.14C489.99 391.98 493.93 391.95 497.05 393.93C499.45 395.45 501.05 397.93 502.69 400.24C510.698 411.173 522.378 418.852 535.59 421.87C537.59 422.32 542.07 423.87 543.3 422.18L542 417L540.86 401.29L496.92 369.29L446.77 371.75L436.58 389.22Z" fill="black"/>
</g>
<path d="M532.9 315.63H505.77V320.12H532.9V315.63Z" fill="#263238"/>
<path d="M534.74 370.49C545.74 374.39 557.74 373.8 569.22 372.11C571.95 371.7 574.8 371.18 576.95 369.45C577.67 368.88 579.41 367.45 579.38 367.07C579.3 366.02 577.38 364.62 576.29 363.75C572.113 360.523 567.293 358.228 562.154 357.02C557.015 355.813 551.677 355.721 546.5 356.75C543.74 357.247 541.099 358.265 538.72 359.75C536.39 361.31 534.93 362.17 534.13 364.86" fill="#8257E5"/>
<g opacity="0.3">
<path opacity="0.3" d="M534.74 370.49C545.74 374.39 557.74 373.8 569.22 372.11C571.95 371.7 574.8 371.18 576.95 369.45C577.67 368.88 579.41 367.45 579.38 367.07C579.3 366.02 577.38 364.62 576.29 363.75C572.113 360.523 567.293 358.228 562.154 357.02C557.015 355.813 551.677 355.721 546.5 356.75C543.74 357.247 541.099 358.265 538.72 359.75C536.39 361.31 534.93 362.17 534.13 364.86" fill="black"/>
</g>
<path d="M579.38 367.07C579.38 367.07 567.86 298.36 567.15 292.23C565.36 277.03 559.64 272.17 559.64 272.17L532.9 354L534.75 370.49C534.75 370.49 543.2 357.77 579.38 367.07Z" fill="#8257E5"/>
<path d="M564.64 311.89C564.517 312.469 564.35 313.037 564.14 313.59C563.8 314.68 563.23 316.23 562.49 318.13C560.524 323.071 558.184 327.855 555.49 332.44C552.783 337.012 549.713 341.36 546.31 345.44C545 347 543.9 348.24 543.11 349.06C542.717 349.5 542.296 349.914 541.85 350.3C542.182 349.811 542.553 349.349 542.96 348.92C543.7 348.06 544.76 346.79 546.03 345.2C549.326 341.059 552.334 336.695 555.03 332.14C557.712 327.588 560.09 322.865 562.15 318C562.93 316.12 563.55 314.59 563.95 313.53C564.139 312.967 564.37 312.419 564.64 311.89Z" fill="#263238"/>
<path d="M438.53 378.83C438.497 378.761 438.477 378.686 438.47 378.61C438.47 378.43 438.4 378.21 438.35 377.94C438.26 377.31 438.12 376.46 437.95 375.38C437.57 373.11 437.04 369.91 436.38 365.98C435 358 433 347.1 430.82 335C428.64 322.9 426.64 312 425.19 304L423.54 294.6C423.38 293.53 423.24 292.67 423.14 292.04L423.07 291.37C423.055 291.294 423.055 291.216 423.07 291.14C423.101 291.21 423.121 291.284 423.13 291.36C423.13 291.54 423.21 291.76 423.26 292.02C423.38 292.65 423.54 293.5 423.75 294.57C424.19 296.83 424.8 300.01 425.56 303.93C427.07 311.84 429.14 322.78 431.35 334.87C433.56 346.96 435.47 357.92 436.75 365.87C437.39 369.87 437.86 373.07 438.16 375.3C438.29 376.39 438.39 377.25 438.47 377.88C438.47 378.15 438.47 378.37 438.53 378.55C438.543 378.643 438.543 378.737 438.53 378.83Z" fill="#263238"/>
<path d="M548.65 296C548.629 296.261 548.582 296.519 548.51 296.77C548.39 297.32 548.23 298.05 548.02 298.96C547.57 300.91 546.94 303.65 546.16 306.96C544.57 313.75 542.37 323.12 540.04 333.5C537.71 343.88 535.68 353.29 534.34 360.13C533.68 363.55 533.14 366.32 532.81 368.24C532.65 369.16 532.51 369.89 532.41 370.45C532.379 370.708 532.323 370.963 532.24 371.21C532.241 370.948 532.264 370.688 532.31 370.43C532.39 369.87 532.49 369.13 532.61 368.21C532.88 366.27 533.36 363.49 533.98 360.06C535.23 353.2 537.19 343.77 539.53 333.38C541.87 322.99 544.12 313.64 545.8 306.87C546.64 303.53 547.33 300.81 547.8 298.87C548.04 297.97 548.24 297.25 548.38 296.7C548.447 296.458 548.537 296.224 548.65 296Z" fill="#263238"/>
<path d="M447.66 257.41C447.745 257.505 447.818 257.609 447.88 257.72L448.5 258.72C449.05 259.58 449.83 260.82 450.83 262.41L459.31 276L487.31 321.37H486.88L488.2 319.5C489.63 317.5 491.03 315.5 492.35 313.66V314L466.51 271.15C463.27 265.74 460.66 261.37 458.85 258.33L456.8 254.86L456.28 253.95C456.211 253.85 456.154 253.743 456.11 253.63C456.187 253.721 456.257 253.818 456.32 253.92L456.88 254.81C457.38 255.61 458.1 256.81 459.01 258.24C460.86 261.24 463.52 265.59 466.81 270.97L492.81 313.73L492.89 313.87L492.8 314.01C491.47 315.87 490.07 317.85 488.65 319.85L487.32 321.72L487.09 322.04L486.89 321.71L459 276.21C455.48 270.42 452.63 265.74 450.65 262.47C449.65 260.87 448.93 259.61 448.4 258.73L447.83 257.73C447.762 257.629 447.705 257.522 447.66 257.41Z" fill="#263238"/>
<path d="M523.17 252.09C523.136 252.194 523.085 252.292 523.02 252.38L522.51 253.2L520.51 256.34L513.11 267.89L488.17 306.49V306.21C489.27 308.01 490.44 309.93 491.63 311.86L492.75 313.69H492.31C497.65 305.69 502.57 298.03 507.08 291.08C511.59 284.13 515.7 277.92 519.28 272.8C522.86 267.68 525.85 263.62 527.95 260.8L530.4 257.63L531.05 256.81C531.119 256.717 531.196 256.63 531.28 256.55C531.228 256.657 531.165 256.758 531.09 256.85L530.48 257.69C529.92 258.45 529.13 259.54 528.11 260.92C526.11 263.73 523.11 267.82 519.58 272.92C516.05 278.02 511.95 284.28 507.48 291.25C503.01 298.22 498.11 306 492.77 314L492.54 314.34L492.33 313.99L491.21 312.16L487.76 306.51L487.67 306.38L487.76 306.24L512.84 267.73L520.37 256.27L522.43 253.18L522.97 252.39L523.17 252.09Z" fill="#263238"/>
<path d="M451.56 348.28C449.579 347.425 447.353 347.332 445.308 348.019C443.263 348.705 441.543 350.123 440.48 352C439.673 353.6 439.357 355.402 439.57 357.181C439.784 358.96 440.518 360.636 441.68 362C444.05 364.52 449.79 366.24 452.46 363.2L451.56 348.28Z" fill="#EBEBEB"/>
<path d="M451.56 348.28C451.63 348.63 451.673 348.984 451.69 349.34C451.75 350.12 451.84 351.14 451.94 352.39C452.13 355.12 452.39 358.85 452.69 363.23V363.33L452.63 363.4C452.033 364.022 451.302 364.498 450.493 364.793C449.683 365.088 448.816 365.193 447.96 365.1C446.133 364.98 444.37 364.38 442.85 363.36C441.374 362.386 440.277 360.935 439.74 359.25C439.241 357.701 439.128 356.053 439.41 354.45C439.656 352.993 440.296 351.631 441.26 350.51C442.091 349.552 443.112 348.779 444.26 348.24C445.936 347.46 447.819 347.239 449.63 347.61C450.287 347.736 450.921 347.962 451.51 348.28C451.46 348.28 450.85 348.03 449.6 347.81C447.835 347.527 446.026 347.796 444.42 348.58C443.23 349.123 442.191 349.949 441.394 350.986C440.597 352.023 440.067 353.24 439.85 354.53C439.586 356.055 439.703 357.621 440.19 359.09C440.694 360.664 441.72 362.019 443.1 362.93C444.545 363.895 446.216 364.467 447.95 364.59C448.73 364.682 449.522 364.595 450.263 364.335C451.005 364.075 451.678 363.649 452.23 363.09L452.17 363.26C451.95 358.92 451.77 355.26 451.63 352.52C451.58 351.25 451.54 350.21 451.51 349.42C451.501 349.039 451.518 348.658 451.56 348.28Z" fill="#263238"/>
<path d="M444.41 348.28C444.41 348.28 447.26 289.54 448.73 281.12C450.2 272.7 453.98 259.12 459.93 250.85C465.62 242.98 466.18 242.43 466.18 242.43L465.8 249.76C460.403 259.247 456.548 269.532 454.38 280.23C451.21 296.87 449.03 348.23 449.03 348.23L444.41 348.28Z" fill="#263238"/>
<path d="M527.89 358.78C526.221 358.762 524.571 358.422 523.03 357.78L523.79 355.93C525.828 356.823 528.107 357.003 530.26 356.44C531.322 356.127 532.299 355.578 533.118 354.833C533.938 354.088 534.578 353.167 534.99 352.14C535.641 350.109 535.676 347.931 535.09 345.88C534.687 344.36 534.189 342.868 533.6 341.41C533.35 340.76 533.1 340.11 532.86 339.41C528.66 327.6 529.39 314.41 530.03 302.72L532.03 302.83C531.4 314.3 530.69 327.31 534.76 338.74C534.99 339.39 535.23 340.02 535.47 340.66C536.097 342.195 536.624 343.768 537.05 345.37C537.743 347.815 537.68 350.412 536.87 352.82C536.357 354.135 535.55 355.314 534.51 356.268C533.47 357.222 532.224 357.924 530.87 358.32C529.905 358.62 528.901 358.775 527.89 358.78Z" fill="#E0E0E0"/>
<path d="M527.7 359.66C524.36 359.66 521.44 358.09 518.9 354.95C515.6 350.89 515.07 340.82 514.61 331.95C514.45 328.77 514.29 325.77 514.01 323.59C513.01 315.91 508.62 305.59 508.58 305.5L510.41 304.71C510.6 305.14 514.97 315.37 515.99 323.34C516.28 325.59 516.44 328.63 516.61 331.84C517.03 340 517.56 350.16 520.45 353.71C524.81 359.08 530.1 359.03 537.6 353.54L538.78 355.16C534.65 358.15 531 359.66 527.7 359.66Z" fill="#EBEBEB"/>
<path d="M534.75 355.25C535.123 354.223 535.638 353.254 536.28 352.37C536.891 351.507 537.818 350.921 538.86 350.74C539.38 350.678 539.907 350.781 540.366 351.034C540.826 351.287 541.194 351.677 541.42 352.15C541.617 352.646 541.678 353.185 541.597 353.712C541.516 354.24 541.297 354.736 540.96 355.15C540.307 355.913 539.402 356.417 538.41 356.57C537.444 356.695 536.466 356.695 535.5 356.57" fill="#263238"/>
<path d="M514.79 268.1C522.623 278.153 527.319 290.292 528.29 303H532.45C531.59 288.435 525.876 274.578 516.22 263.64C517.269 260.321 518.036 256.919 518.51 253.47C519.43 245.66 510.86 240.93 510.86 240.93V246.85C511.942 247.464 512.838 248.358 513.454 249.439C514.07 250.519 514.383 251.746 514.36 252.99C514.17 257.2 511.01 266.15 507.92 273.87C505.318 280.202 504.154 287.033 504.51 293.87C504.8 302.62 508.22 306.59 508.22 306.59L512.35 304.84C512.35 304.84 509.88 301.75 508.81 293.3C507.99 286.84 509.9 281.79 511.56 277.12C512.4 274.8 513.61 271.6 514.79 268.1Z" fill="#263238"/>
<path d="M395.27 355.9L390.27 374.97C389.43 377.997 389.391 381.191 390.157 384.238C390.923 387.285 392.468 390.08 394.64 392.35C394.91 392.62 395.19 392.89 395.47 393.14C398.081 395.476 401.292 397.039 404.742 397.652C408.191 398.265 411.744 397.904 415 396.61L466.79 376L459.14 352.65L419.93 363.82L395.27 355.9Z" fill="#A36957"/>
<path d="M437.79 324.12L447.18 374.12C447.376 375.176 447.946 376.126 448.785 376.796C449.624 377.466 450.677 377.812 451.75 377.77L523.49 375C524.674 374.953 525.791 374.44 526.599 373.573C527.406 372.706 527.838 371.554 527.8 370.37L526.16 323.13C526.121 321.969 525.631 320.869 524.795 320.062C523.959 319.256 522.842 318.807 521.68 318.81H442.19C441.531 318.809 440.88 318.953 440.283 319.233C439.686 319.512 439.159 319.921 438.738 320.428C438.318 320.935 438.015 321.53 437.851 322.168C437.687 322.806 437.666 323.473 437.79 324.12Z" fill="#455A64"/>
<path d="M516.17 344.48C514.826 344.477 513.514 344.88 512.403 345.637C511.293 346.394 510.438 347.468 509.95 348.72C508.95 351.43 507.39 354.59 505.71 355.5C502.6 357.2 497.22 358.56 494.4 357.17C491.58 355.78 480.26 345.61 478.28 346.74C476.3 347.87 474.6 350.41 476.58 352.68C478.56 354.95 489 361.73 487 364C485 366.27 463 356.3 459.57 357.18C456.14 358.06 454.2 360.18 456.18 361.51C458.16 362.84 473.18 368.51 473.99 370.51C473.99 370.51 451.37 364.57 450.52 365.99C449.67 367.41 448.26 369.66 450.52 370.51C452.78 371.36 472.3 376.45 473.99 377.3C476.797 378.468 479.725 379.32 482.72 379.84C483.33 379.84 487.72 381.33 491.83 382.73C496.409 384.321 501.411 384.189 505.9 382.36L508.19 381.42C509.924 380.709 511.394 379.474 512.392 377.887C513.391 376.3 513.869 374.442 513.76 372.57L513.3 364.86L515.77 358.49L516.17 344.48Z" fill="#A36957"/>
<path d="M498.05 383.81C498.05 383.81 539.33 421.18 553.23 421.29C567.88 421.4 576.13 406.2 574.57 396.75C573.73 391.75 571.57 365.36 571.57 365.36C561.76 362.68 547.1 361.48 536.65 368.43L540.46 383.81L512.9 370.49L498.05 383.81Z" fill="#A36957"/>
<path d="M579.38 367.07C579.221 367.062 579.063 367.035 578.91 366.99L577.57 366.67C576.42 366.39 574.75 365.98 572.68 365.51C567.31 364.216 561.803 363.578 556.28 363.61C553.258 363.706 550.249 364.04 547.28 364.61C544.842 365.036 542.46 365.737 540.18 366.7C538.65 367.364 537.222 368.243 535.94 369.31C535.05 370.08 534.62 370.58 534.58 370.55C534.653 370.407 534.748 370.275 534.86 370.16C535.155 369.807 535.473 369.473 535.81 369.16C537.061 368.014 538.485 367.073 540.03 366.37C542.316 365.337 544.721 364.588 547.19 364.14C550.194 363.527 553.245 363.169 556.31 363.07C561.873 363.026 567.418 363.719 572.8 365.13C574.87 365.65 576.53 366.13 577.67 366.46L578.97 366.87C579.23 367 579.39 367.05 579.38 367.07Z" fill="#263238"/>
<path d="M699.8 464.7C699.8 464.84 554.37 464.96 375.02 464.96C195.67 464.96 50.2 464.84 50.2 464.7C50.2 464.56 195.6 464.44 375.02 464.44C554.44 464.44 699.8 464.56 699.8 464.7Z" fill="#263238"/>
<path d="M613 419.87C615.11 422.87 619.15 421.82 621 419.99C622.85 418.16 623.63 415.52 624.33 412.99C625.94 407.25 627.55 401.22 626.28 395.4C625.976 393.633 625.187 391.985 624 390.64C623.4 389.976 622.637 389.48 621.786 389.203C620.935 388.926 620.026 388.876 619.15 389.06C617.15 389.62 615.87 391.63 614.97 393.53C612.32 399.16 610.953 405.308 610.97 411.53C610.97 414.42 611.35 417.46 612.97 419.83" fill="#A6E8C8"/>
<g opacity="0.2">
<path opacity="0.2" d="M613 419.87C615.11 422.87 619.15 421.82 621 419.99C622.85 418.16 623.63 415.52 624.33 412.99C625.94 407.25 627.55 401.22 626.28 395.4C625.976 393.633 625.187 391.985 624 390.64C623.4 389.976 622.637 389.48 621.786 389.203C620.935 388.926 620.026 388.876 619.15 389.06C617.15 389.62 615.87 391.63 614.97 393.53C612.32 399.16 610.953 405.308 610.97 411.53C610.97 414.42 611.35 417.46 612.97 419.83" fill="black"/>
</g>
<path d="M620.94 434.87C624.417 433.209 628.334 432.701 632.12 433.42C634.189 433.588 636.143 434.443 637.67 435.85C639.06 437.36 639.34 440.04 637.77 441.36C636.752 442.061 635.521 442.386 634.29 442.28C631.29 442.28 628.04 441.77 625.69 443.57C624.35 444.57 623.47 446.29 621.86 446.8C621.055 446.991 620.209 446.915 619.45 446.586C618.691 446.256 618.06 445.689 617.65 444.97C616.868 443.492 616.686 441.769 617.14 440.16C617.321 439.044 617.759 437.986 618.418 437.068C619.077 436.15 619.941 435.398 620.94 434.87Z" fill="#A6E8C8"/>
<path d="M607.34 424.18C608.405 422.771 609.108 421.123 609.389 419.38C609.669 417.637 609.519 415.852 608.95 414.18C607.773 410.844 605.697 407.899 602.95 405.67C599.843 402.955 596.24 400.867 592.34 399.52C590.829 398.929 589.21 398.666 587.59 398.75C586.774 398.8 585.982 399.05 585.285 399.477C584.587 399.904 584.005 400.496 583.59 401.2C582.5 403.32 583.59 405.88 584.75 407.97C586.804 411.651 589.145 415.165 591.75 418.48C593.84 421.14 596.25 423.77 599.42 424.95C602.59 426.13 605.89 425.95 607.55 423.76" fill="#A6E8C8"/>
<path d="M613.23 464.72C613.339 464.274 613.399 463.818 613.41 463.36C613.5 462.36 613.61 461.15 613.74 459.68C613.908 457.861 614.172 456.052 614.53 454.26C614.995 452.082 615.634 449.946 616.44 447.87C617.231 445.793 618.315 443.84 619.66 442.07C620.749 440.626 622.146 439.444 623.75 438.61C624.838 438.061 626.006 437.686 627.21 437.5C627.662 437.477 628.111 437.41 628.55 437.3C628.098 437.25 627.642 437.25 627.19 437.3C625.932 437.407 624.705 437.746 623.57 438.3C621.882 439.108 620.406 440.3 619.26 441.78C617.861 443.578 616.735 445.573 615.92 447.7C615.103 449.809 614.467 451.983 614.02 454.2C613.688 456.012 613.464 457.842 613.35 459.68C613.24 461.25 613.21 462.52 613.19 463.39C613.157 463.833 613.17 464.279 613.23 464.72Z" fill="#263238"/>
<path d="M613.46 461.88C613.486 461.671 613.486 461.459 613.46 461.25C613.46 460.78 613.46 460.19 613.46 459.46C613.46 457.9 613.46 455.65 613.46 452.87C613.56 447.31 613.98 439.63 614.84 431.19C615.7 422.75 616.84 415.19 617.96 409.7C618.22 408.33 618.47 407.1 618.72 406.02C618.97 404.94 619.15 404.02 619.34 403.26C619.53 402.5 619.64 401.97 619.75 401.51C619.826 401.496 619.895 401.454 619.941 401.393C619.988 401.331 620.011 401.254 620.004 401.177C619.997 401.1 619.961 401.028 619.904 400.976C619.847 400.924 619.772 400.895 619.695 400.895C619.618 400.895 619.543 400.924 619.486 400.976C619.429 401.028 619.393 401.1 619.386 401.177C619.379 401.254 619.402 401.331 619.449 401.393C619.496 401.454 619.564 401.496 619.64 401.51C619.5 401.96 619.34 402.51 619.13 403.23C618.92 403.95 618.68 404.9 618.41 405.98C618.14 407.06 617.86 408.28 617.57 409.65C616.092 416.76 614.994 423.943 614.28 431.17C613.42 439.63 613.06 447.32 613.07 452.9C613.07 455.69 613.14 457.9 613.22 459.5C613.22 460.22 613.31 460.82 613.34 461.29C613.36 461.49 613.4 461.688 613.46 461.88Z" fill="#263238"/>
<path d="M613.38 447C613.43 446.378 613.43 445.752 613.38 445.13C613.3 443.93 613.12 442.19 612.76 440.06C611.787 434.529 610.148 429.137 607.88 424C605.698 418.79 602.583 414.022 598.69 409.93C598.019 409.215 597.301 408.547 596.54 407.93C596.21 407.65 595.92 407.38 595.63 407.16L594.79 406.6C594.291 406.225 593.762 405.891 593.21 405.6C595.036 407.015 596.772 408.541 598.41 410.17C602.186 414.289 605.23 419.024 607.41 424.17C608.656 426.977 609.715 429.863 610.58 432.81C611.31 435.214 611.917 437.654 612.4 440.12C612.8 442.22 613.04 443.94 613.18 445.12C613.202 445.751 613.269 446.379 613.38 447Z" fill="#263238"/>
<path d="M569.62 78.62H569.37C567.1 78.62 565.26 80.4601 565.26 82.73V122.96C565.26 125.23 567.1 127.07 569.37 127.07H569.62C571.89 127.07 573.73 125.23 573.73 122.96V82.73C573.73 80.4601 571.89 78.62 569.62 78.62Z" fill="#E0E0E0"/>
<path d="M569.62 93.1H569.37C567.1 93.1 565.26 94.9401 565.26 97.21V122.96C565.26 125.23 567.1 127.07 569.37 127.07H569.62C571.89 127.07 573.73 125.23 573.73 122.96V97.21C573.73 94.9401 571.89 93.1 569.62 93.1Z" fill="#8257E5"/>
<path d="M583.49 78.62H583.24C580.97 78.62 579.13 80.4601 579.13 82.73V122.96C579.13 125.23 580.97 127.07 583.24 127.07H583.49C585.76 127.07 587.6 125.23 587.6 122.96V82.73C587.6 80.4601 585.76 78.62 583.49 78.62Z" fill="#E0E0E0"/>
<path d="M583.49 100.61H583.24C580.97 100.61 579.13 102.45 579.13 104.72V122.96C579.13 125.23 580.97 127.07 583.24 127.07H583.49C585.76 127.07 587.6 125.23 587.6 122.96V104.72C587.6 102.45 585.76 100.61 583.49 100.61Z" fill="#8257E5"/>
<path d="M599.18 78.62H598.93C596.66 78.62 594.82 80.4601 594.82 82.73V122.96C594.82 125.23 596.66 127.07 598.93 127.07H599.18C601.45 127.07 603.29 125.23 603.29 122.96V82.73C603.29 80.4601 601.45 78.62 599.18 78.62Z" fill="#E0E0E0"/>
<path d="M599.18 87.38H598.93C596.66 87.38 594.82 89.2201 594.82 91.49V122.97C594.82 125.24 596.66 127.08 598.93 127.08H599.18C601.45 127.08 603.29 125.24 603.29 122.97V91.49C603.29 89.2201 601.45 87.38 599.18 87.38Z" fill="#8257E5"/>
<path d="M569.62 127.08C569.62 127.08 570 127.08 570.68 126.88C571.668 126.598 572.51 125.946 573.03 125.06C573.41 124.433 573.608 123.713 573.6 122.98C573.6 122.15 573.6 121.26 573.6 120.3C573.6 118.38 573.6 116.19 573.6 113.78C573.6 108.94 573.6 103.19 573.6 96.78C573.6 93.59 573.6 90.24 573.6 86.78V84.16C573.661 83.2996 573.604 82.4348 573.43 81.59C573.166 80.7677 572.638 80.0559 571.927 79.5656C571.216 79.0754 570.362 78.8343 569.5 78.88C568.641 78.8854 567.809 79.1761 567.133 79.7066C566.458 80.237 565.979 80.977 565.77 81.81C565.643 82.6705 565.603 83.5415 565.65 84.41V87C565.65 90.47 565.65 93.82 565.65 97C565.65 103.38 565.65 109.13 565.65 114C565.65 116.41 565.65 118.59 565.65 120.52C565.65 121.52 565.65 122.38 565.65 123.19C565.692 123.907 565.931 124.599 566.34 125.19C566.922 126.037 567.8 126.636 568.8 126.87C569.49 127.01 569.87 126.98 569.87 127.01C569.509 127.072 569.141 127.072 568.78 127.01C567.731 126.809 566.797 126.215 566.17 125.35C565.717 124.72 565.45 123.975 565.4 123.2C565.4 122.36 565.4 121.48 565.4 120.52C565.4 118.59 565.4 116.41 565.4 114C565.4 109.16 565.4 103.41 565.34 97C565.34 93.8 565.34 90.45 565.34 87C565.34 86.13 565.34 85.25 565.34 84.37V83.08C565.325 82.6097 565.369 82.1395 565.47 81.68C565.709 80.7352 566.255 79.8965 567.023 79.2956C567.79 78.6947 568.735 78.3656 569.71 78.36C570.688 78.3229 571.651 78.5997 572.46 79.15C573.248 79.7099 573.834 80.5097 574.13 81.43C574.26 81.8854 574.327 82.3564 574.33 82.83V84.16C574.33 85.05 574.33 85.92 574.33 86.79C574.33 90.27 574.33 93.62 574.33 96.79C574.33 103.17 574.33 108.92 574.27 113.79C574.27 116.2 574.27 118.39 574.27 120.31C574.27 121.31 574.27 122.16 574.27 122.99C574.259 123.761 574.038 124.515 573.63 125.17C573.305 125.67 572.874 126.093 572.368 126.41C571.861 126.726 571.292 126.927 570.7 127C570.347 127.089 569.982 127.116 569.62 127.08Z" fill="#263238"/>
<path d="M583.48 127.08C583.48 127.08 583.86 127.08 584.54 126.88C585.39 126.644 586.138 126.134 586.668 125.428C587.198 124.723 587.48 123.862 587.47 122.98C587.47 122.15 587.47 121.26 587.47 120.3C587.47 118.38 587.47 116.19 587.47 113.78C587.47 108.94 587.47 103.19 587.47 96.78C587.47 93.59 587.47 90.24 587.47 86.78V84.16C587.528 83.2991 587.468 82.4343 587.29 81.59C587.019 80.7733 586.493 80.0655 585.788 79.5719C585.083 79.0782 584.238 78.825 583.378 78.8497C582.518 78.8744 581.689 79.1757 581.014 79.709C580.339 80.2423 579.853 80.9791 579.63 81.81C579.507 82.6708 579.47 83.5418 579.52 84.41C579.52 85.29 579.52 86.17 579.52 87.04C579.52 90.51 579.52 93.86 579.52 97.04C579.52 103.42 579.52 109.17 579.46 114.04C579.46 116.45 579.46 118.63 579.46 120.56C579.46 121.56 579.46 122.42 579.46 123.23C579.511 123.946 579.749 124.635 580.15 125.23C580.736 126.078 581.616 126.677 582.62 126.91C583.3 127.05 583.69 127.02 583.68 127.05C583.319 127.112 582.951 127.112 582.59 127.05C581.686 126.877 580.865 126.41 580.255 125.72C579.645 125.031 579.281 124.158 579.22 123.24C579.22 122.4 579.22 121.52 579.22 120.56C579.22 118.63 579.22 116.45 579.22 114.04C579.22 109.2 579.22 103.45 579.17 97.04C579.17 93.84 579.17 90.49 579.17 87.04V83.04C579.15 82.5696 579.194 82.0987 579.3 81.64C579.538 80.6943 580.083 79.8547 580.851 79.2535C581.619 78.6524 582.565 78.3239 583.54 78.32C584.515 78.2815 585.476 78.5586 586.28 79.11C587.074 79.6662 587.664 80.467 587.96 81.39C588.092 81.8448 588.156 82.3165 588.15 82.79V86.79C588.15 90.27 588.15 93.62 588.15 96.79C588.15 103.17 588.15 108.92 588.1 113.79C588.1 116.2 588.1 118.39 588.1 120.31C588.1 121.31 588.1 122.16 588.1 122.99C588.09 123.763 587.865 124.518 587.45 125.17C586.888 126.081 585.99 126.735 584.95 126.99C584.474 127.133 583.97 127.164 583.48 127.08Z" fill="#263238"/>
<path d="M599.17 127.08C599.17 127.08 599.55 127.08 600.23 126.88C601.08 126.644 601.828 126.134 602.358 125.428C602.888 124.723 603.17 123.862 603.16 122.98C603.16 122.15 603.16 121.26 603.16 120.3C603.16 118.38 603.16 116.19 603.16 113.78C603.16 108.94 603.16 103.19 603.1 96.78C603.1 93.59 603.1 90.24 603.1 86.78V84.16C603.158 83.2991 603.098 82.4343 602.92 81.59C602.65 80.7733 602.123 80.0655 601.418 79.5719C600.713 79.0782 599.868 78.825 599.008 78.8497C598.148 78.8744 597.319 79.1757 596.644 79.709C595.969 80.2423 595.483 80.9791 595.26 81.81C595.139 82.671 595.098 83.5415 595.14 84.41V87C595.14 90.47 595.14 93.82 595.14 97C595.14 103.38 595.14 109.13 595.08 114C595.08 116.41 595.08 118.59 595.08 120.52C595.08 121.52 595.08 122.38 595.08 123.19C595.126 123.907 595.365 124.597 595.77 125.19C596.354 126.035 597.23 126.634 598.23 126.87C598.92 127.01 599.3 126.98 599.3 127.01C598.939 127.072 598.571 127.072 598.21 127.01C597.306 126.837 596.485 126.37 595.875 125.68C595.265 124.991 594.901 124.118 594.84 123.2C594.84 122.36 594.84 121.48 594.84 120.52C594.84 118.59 594.84 116.41 594.84 114C594.84 109.16 594.84 103.41 594.84 97C594.84 93.8 594.84 90.45 594.84 87V83C594.82 82.5296 594.864 82.0587 594.97 81.6C595.208 80.6543 595.754 79.8147 596.521 79.2135C597.289 78.6124 598.235 78.2839 599.21 78.28C600.182 78.2339 601.142 78.5097 601.941 79.0648C602.74 79.6199 603.334 80.4231 603.63 81.35C603.762 81.8048 603.826 82.2765 603.82 82.75V86.75C603.82 90.23 603.82 93.58 603.82 96.75C603.82 103.13 603.82 108.88 603.82 113.75C603.82 116.16 603.82 118.35 603.82 120.27C603.82 121.27 603.82 122.12 603.82 122.95C603.81 123.723 603.585 124.478 603.17 125.13C602.608 126.041 601.71 126.695 600.67 126.95C600.187 127.111 599.673 127.156 599.17 127.08Z" fill="#263238"/>
<path d="M584.28 47.28C584.583 47.2558 584.887 47.2558 585.19 47.28L587.88 47.35C588.47 47.35 589.14 47.35 589.88 47.44L592.25 47.78L595.02 48.17L598.11 48.94C603.435 50.2837 608.502 52.4931 613.11 55.48C619.934 59.8143 625.674 65.6543 629.889 72.5517C634.105 79.4491 636.685 87.2207 637.43 95.27C637.638 97.6809 637.684 100.103 637.57 102.52C637.49 103.75 637.51 104.99 637.33 106.23C637.15 107.47 636.96 108.71 636.77 109.97C635.835 115.108 634.15 120.081 631.77 124.73C629.204 129.602 625.94 134.073 622.08 138C617.994 142.03 613.308 145.404 608.19 148C602.896 150.714 597.165 152.474 591.26 153.2C589.764 153.427 588.254 153.554 586.74 153.58C585.223 153.697 583.7 153.724 582.18 153.66C572.429 153.283 562.968 150.236 554.83 144.85L555.38 144.91L536.84 152.35L535.75 152.79L536.06 151.65L541.51 131.83L541.6 132.31C536.569 125.642 533.181 117.882 531.71 109.66C531 105.817 530.762 101.901 531 98C531.036 96.133 531.209 94.2713 531.52 92.43C531.67 91.52 531.81 90.61 531.95 89.71C532.09 88.81 532.38 87.96 532.59 87.09C535.709 74.9305 543.036 64.2697 553.27 57C557.055 54.2799 561.197 52.0959 565.58 50.51L568.35 49.51L571 48.8L573.4 48.2C574.18 48.05 574.92 47.97 575.62 47.87C577.02 47.69 578.25 47.45 579.33 47.39L582.06 47.3H583.72C583.91 47.2845 584.1 47.2845 584.29 47.3C584.105 47.354 583.913 47.381 583.72 47.38L582.07 47.51L579.36 47.69C578.29 47.78 577.07 48.05 575.68 48.25C565.623 49.9921 556.286 54.6142 548.803 61.5561C541.32 68.4979 536.011 77.4614 533.52 87.36C533.32 88.22 533.06 89.07 532.9 89.94C532.74 90.81 532.63 91.71 532.5 92.61C532.199 94.4184 532.036 96.2469 532.01 98.08C531.8 101.89 532.052 105.711 532.76 109.46C534.234 117.506 537.577 125.093 542.52 131.61L542.68 131.84L542.61 132.1C540.863 138.507 539.06 145.12 537.2 151.94L536.42 151.24C542.46 148.807 548.637 146.32 554.95 143.78L555.24 143.66L555.5 143.83C563.461 149.086 572.708 152.064 582.24 152.44C583.727 152.498 585.216 152.472 586.7 152.36C588.177 152.337 589.65 152.214 591.11 151.99C596.885 151.29 602.49 149.577 607.67 146.93C612.679 144.399 617.269 141.114 621.28 137.19C625.046 133.335 628.235 128.956 630.75 124.19C633.114 119.644 634.799 114.775 635.75 109.74C635.937 108.507 636.127 107.287 636.32 106.08C636.5 104.87 636.48 103.65 636.57 102.45C636.686 100.077 636.646 97.6982 636.45 95.33C635.748 87.4032 633.248 79.7409 629.139 72.9257C625.03 66.1105 619.422 60.3219 612.74 56C608.215 53.0139 603.238 50.7784 598 49.38L594.95 48.57L592.21 48.12L589.85 47.73C589.13 47.65 588.47 47.63 587.85 47.59L585.17 47.39C584.871 47.3798 584.573 47.343 584.28 47.28Z" fill="#263238"/>
</svg>
